<mxfile host="app.diagrams.net" modified="2024-07-04T08:54:32.616Z" agent="Mozilla/5.0 (Windows NT 10.0; Win64; x64) AppleWebKit/537.36 (KHTML, like Gecko) Chrome/126.0.0.0 Safari/537.36 Edg/126.0.0.0" etag="qiE6kP_Pck2kgh6hWPWJ" version="24.6.4" type="device">
  <diagram name="第 1 页" id="4M9GxXqNogDAed1UOblD">
    <mxGraphModel dx="223" dy="507" grid="0" gridSize="10" guides="1" tooltips="1" connect="1" arrows="1" fold="1" page="0" pageScale="1" pageWidth="827" pageHeight="1169" math="0" shadow="0">
      <root>
        <mxCell id="0" />
        <mxCell id="1" parent="0" />
        <mxCell id="MsynWxrNxUOjoEWNQWUF-1" value="&lt;font face=&quot;Lucida Console&quot;&gt;PC&lt;/font&gt;" style="rounded=1;whiteSpace=wrap;html=1;fontFamily=Architects Daughter;fontSource=https%3A%2F%2Ffonts.googleapis.com%2Fcss%3Ffamily%3DArchitects%2BDaughter;" parent="1" vertex="1">
          <mxGeometry x="202" y="299.5" width="47" height="59" as="geometry" />
        </mxCell>
        <mxCell id="MsynWxrNxUOjoEWNQWUF-2" value="&lt;font face=&quot;Lucida Console&quot;&gt;Mux&lt;/font&gt;" style="shape=trapezoid;perimeter=trapezoidPerimeter;whiteSpace=wrap;html=1;fixedSize=1;fontFamily=Architects Daughter;fontSource=https%3A%2F%2Ffonts.googleapis.com%2Fcss%3Ffamily%3DArchitects%2BDaughter;direction=south;" parent="1" vertex="1">
          <mxGeometry x="137" y="287.5" width="30" height="83" as="geometry" />
        </mxCell>
        <mxCell id="MsynWxrNxUOjoEWNQWUF-3" value="&lt;font style=&quot;font-size: 11px;&quot; face=&quot;Lucida Console&quot;&gt;Instruction&lt;/font&gt;&lt;div style=&quot;font-size: 11px;&quot;&gt;&lt;font style=&quot;font-size: 11px;&quot; face=&quot;Lucida Console&quot;&gt;Memory&lt;/font&gt;&lt;/div&gt;" style="rounded=1;whiteSpace=wrap;html=1;fontFamily=Architects Daughter;fontSource=https%3A%2F%2Ffonts.googleapis.com%2Fcss%3Ffamily%3DArchitects%2BDaughter;" parent="1" vertex="1">
          <mxGeometry x="276" y="266.5" width="81" height="125" as="geometry" />
        </mxCell>
        <mxCell id="MsynWxrNxUOjoEWNQWUF-4" value="" style="endArrow=none;html=1;rounded=0;fontFamily=Architects Daughter;fontSource=https%3A%2F%2Ffonts.googleapis.com%2Fcss%3Ffamily%3DArchitects%2BDaughter;fontSize=16;startSize=14;endSize=14;sourcePerimeterSpacing=8;targetPerimeterSpacing=8;curved=1;" parent="1" edge="1">
          <mxGeometry width="50" height="50" relative="1" as="geometry">
            <mxPoint x="293.64" y="202" as="sourcePoint" />
            <mxPoint x="293.64" y="181" as="targetPoint" />
          </mxGeometry>
        </mxCell>
        <mxCell id="MsynWxrNxUOjoEWNQWUF-6" value="" style="endArrow=none;html=1;rounded=0;fontFamily=Architects Daughter;fontSource=https%3A%2F%2Ffonts.googleapis.com%2Fcss%3Ffamily%3DArchitects%2BDaughter;fontSize=16;startSize=14;endSize=14;sourcePerimeterSpacing=8;targetPerimeterSpacing=8;curved=1;" parent="1" edge="1">
          <mxGeometry width="50" height="50" relative="1" as="geometry">
            <mxPoint x="293.64" y="230" as="sourcePoint" />
            <mxPoint x="293.64" y="209" as="targetPoint" />
          </mxGeometry>
        </mxCell>
        <mxCell id="MsynWxrNxUOjoEWNQWUF-7" value="" style="endArrow=none;html=1;rounded=0;fontFamily=Architects Daughter;fontSource=https%3A%2F%2Ffonts.googleapis.com%2Fcss%3Ffamily%3DArchitects%2BDaughter;fontSize=16;startSize=14;endSize=14;sourcePerimeterSpacing=8;targetPerimeterSpacing=8;curved=1;" parent="1" edge="1">
          <mxGeometry width="50" height="50" relative="1" as="geometry">
            <mxPoint x="318.64" y="221" as="sourcePoint" />
            <mxPoint x="318.64" y="190" as="targetPoint" />
          </mxGeometry>
        </mxCell>
        <mxCell id="MsynWxrNxUOjoEWNQWUF-8" value="" style="endArrow=none;html=1;rounded=0;fontFamily=Architects Daughter;fontSource=https%3A%2F%2Ffonts.googleapis.com%2Fcss%3Ffamily%3DArchitects%2BDaughter;fontSize=16;startSize=14;endSize=14;sourcePerimeterSpacing=8;targetPerimeterSpacing=8;curved=1;" parent="1" edge="1">
          <mxGeometry width="50" height="50" relative="1" as="geometry">
            <mxPoint x="293.64" y="181" as="sourcePoint" />
            <mxPoint x="318.64" y="190" as="targetPoint" />
          </mxGeometry>
        </mxCell>
        <mxCell id="MsynWxrNxUOjoEWNQWUF-9" value="" style="endArrow=none;html=1;rounded=0;fontFamily=Architects Daughter;fontSource=https%3A%2F%2Ffonts.googleapis.com%2Fcss%3Ffamily%3DArchitects%2BDaughter;fontSize=16;startSize=14;endSize=14;sourcePerimeterSpacing=8;targetPerimeterSpacing=8;curved=1;" parent="1" edge="1">
          <mxGeometry width="50" height="50" relative="1" as="geometry">
            <mxPoint x="293.64" y="230" as="sourcePoint" />
            <mxPoint x="318.64" y="221" as="targetPoint" />
          </mxGeometry>
        </mxCell>
        <mxCell id="MsynWxrNxUOjoEWNQWUF-10" value="" style="endArrow=none;html=1;rounded=0;fontFamily=Architects Daughter;fontSource=https%3A%2F%2Ffonts.googleapis.com%2Fcss%3Ffamily%3DArchitects%2BDaughter;fontSize=16;startSize=14;endSize=14;sourcePerimeterSpacing=8;targetPerimeterSpacing=8;curved=1;" parent="1" edge="1">
          <mxGeometry width="50" height="50" relative="1" as="geometry">
            <mxPoint x="299.64" y="205" as="sourcePoint" />
            <mxPoint x="293.64" y="202" as="targetPoint" />
          </mxGeometry>
        </mxCell>
        <mxCell id="MsynWxrNxUOjoEWNQWUF-11" value="" style="endArrow=none;html=1;rounded=0;fontFamily=Architects Daughter;fontSource=https%3A%2F%2Ffonts.googleapis.com%2Fcss%3Ffamily%3DArchitects%2BDaughter;fontSize=16;startSize=14;endSize=14;sourcePerimeterSpacing=8;targetPerimeterSpacing=8;curved=1;" parent="1" edge="1">
          <mxGeometry width="50" height="50" relative="1" as="geometry">
            <mxPoint x="293.64" y="209" as="sourcePoint" />
            <mxPoint x="299.64" y="205" as="targetPoint" />
          </mxGeometry>
        </mxCell>
        <mxCell id="MsynWxrNxUOjoEWNQWUF-12" value="&lt;font style=&quot;font-size: 14px;&quot; face=&quot;Lucida Console&quot;&gt;+&lt;/font&gt;" style="text;html=1;align=center;verticalAlign=middle;whiteSpace=wrap;rounded=0;fontSize=20;fontFamily=Architects Daughter;fontSource=https%3A%2F%2Ffonts.googleapis.com%2Fcss%3Ffamily%3DArchitects%2BDaughter;" parent="1" vertex="1">
          <mxGeometry x="298.64" y="196" width="18" height="11" as="geometry" />
        </mxCell>
        <mxCell id="MsynWxrNxUOjoEWNQWUF-13" value="" style="rounded=1;whiteSpace=wrap;html=1;fontFamily=Architects Daughter;fontSource=https%3A%2F%2Ffonts.googleapis.com%2Fcss%3Ffamily%3DArchitects%2BDaughter;direction=south;" parent="1" vertex="1">
          <mxGeometry x="383" y="117" width="31" height="424" as="geometry" />
        </mxCell>
        <mxCell id="MsynWxrNxUOjoEWNQWUF-15" value="" style="endArrow=blockThin;html=1;rounded=0;fontFamily=Architects Daughter;fontSource=https%3A%2F%2Ffonts.googleapis.com%2Fcss%3Ffamily%3DArchitects%2BDaughter;fontSize=16;startSize=14;endSize=14;sourcePerimeterSpacing=8;targetPerimeterSpacing=8;curved=1;exitX=1;exitY=0.5;exitDx=0;exitDy=0;entryX=0.5;entryY=1;entryDx=0;entryDy=0;endFill=1;" parent="1" source="MsynWxrNxUOjoEWNQWUF-3" target="MsynWxrNxUOjoEWNQWUF-13" edge="1">
          <mxGeometry width="50" height="50" relative="1" as="geometry">
            <mxPoint x="326" y="337" as="sourcePoint" />
            <mxPoint x="376" y="287" as="targetPoint" />
          </mxGeometry>
        </mxCell>
        <mxCell id="MsynWxrNxUOjoEWNQWUF-30" value="" style="endArrow=blockThin;html=1;rounded=0;fontFamily=Architects Daughter;fontSource=https%3A%2F%2Ffonts.googleapis.com%2Fcss%3Ffamily%3DArchitects%2BDaughter;fontSize=16;startSize=14;endSize=14;sourcePerimeterSpacing=8;targetPerimeterSpacing=8;curved=1;exitX=1;exitY=0.5;exitDx=0;exitDy=0;entryX=0.5;entryY=1;entryDx=0;entryDy=0;endFill=1;" parent="1" edge="1">
          <mxGeometry width="50" height="50" relative="1" as="geometry">
            <mxPoint x="250" y="328.89" as="sourcePoint" />
            <mxPoint x="276" y="328.89" as="targetPoint" />
          </mxGeometry>
        </mxCell>
        <mxCell id="MsynWxrNxUOjoEWNQWUF-31" value="" style="endArrow=blockThin;html=1;rounded=0;fontFamily=Architects Daughter;fontSource=https%3A%2F%2Ffonts.googleapis.com%2Fcss%3Ffamily%3DArchitects%2BDaughter;fontSize=16;startSize=14;endSize=14;sourcePerimeterSpacing=8;targetPerimeterSpacing=8;curved=1;exitX=0.5;exitY=0;exitDx=0;exitDy=0;entryX=0.5;entryY=1;entryDx=0;entryDy=0;endFill=1;" parent="1" source="MsynWxrNxUOjoEWNQWUF-2" edge="1">
          <mxGeometry width="50" height="50" relative="1" as="geometry">
            <mxPoint x="176" y="328.89" as="sourcePoint" />
            <mxPoint x="202" y="328.89" as="targetPoint" />
          </mxGeometry>
        </mxCell>
        <mxCell id="MsynWxrNxUOjoEWNQWUF-32" value="" style="endArrow=none;html=1;rounded=0;fontFamily=Architects Daughter;fontSource=https%3A%2F%2Ffonts.googleapis.com%2Fcss%3Ffamily%3DArchitects%2BDaughter;fontSize=16;startSize=14;endSize=14;sourcePerimeterSpacing=8;targetPerimeterSpacing=8;curved=1;" parent="1" edge="1">
          <mxGeometry width="50" height="50" relative="1" as="geometry">
            <mxPoint x="255" y="329" as="sourcePoint" />
            <mxPoint x="256" y="222" as="targetPoint" />
          </mxGeometry>
        </mxCell>
        <mxCell id="MsynWxrNxUOjoEWNQWUF-33" value="" style="endArrow=blockThin;html=1;rounded=0;fontFamily=Architects Daughter;fontSource=https://fonts.googleapis.com/css?family=Architects+Daughter;fontSize=16;startSize=14;endSize=14;sourcePerimeterSpacing=8;targetPerimeterSpacing=8;curved=1;endFill=1;" parent="1" edge="1">
          <mxGeometry width="50" height="50" relative="1" as="geometry">
            <mxPoint x="256" y="222" as="sourcePoint" />
            <mxPoint x="293" y="222" as="targetPoint" />
          </mxGeometry>
        </mxCell>
        <mxCell id="MsynWxrNxUOjoEWNQWUF-34" value="" style="endArrow=blockThin;html=1;rounded=0;fontFamily=Architects Daughter;fontSource=https://fonts.googleapis.com/css?family=Architects+Daughter;fontSize=16;startSize=14;endSize=14;sourcePerimeterSpacing=8;targetPerimeterSpacing=8;curved=1;endFill=1;" parent="1" edge="1">
          <mxGeometry width="50" height="50" relative="1" as="geometry">
            <mxPoint x="256" y="191" as="sourcePoint" />
            <mxPoint x="293" y="191" as="targetPoint" />
          </mxGeometry>
        </mxCell>
        <mxCell id="MsynWxrNxUOjoEWNQWUF-35" value="&lt;font style=&quot;font-size: 12px;&quot; face=&quot;Lucida Console&quot;&gt;4&lt;/font&gt;" style="text;html=1;align=center;verticalAlign=middle;whiteSpace=wrap;rounded=0;fontSize=20;fontFamily=Architects Daughter;fontSource=https%3A%2F%2Ffonts.googleapis.com%2Fcss%3Ffamily%3DArchitects%2BDaughter;" parent="1" vertex="1">
          <mxGeometry x="232" y="181" width="31" height="18" as="geometry" />
        </mxCell>
        <mxCell id="MsynWxrNxUOjoEWNQWUF-36" value="&lt;font style=&quot;font-size: 14px;&quot; face=&quot;Lucida Console&quot;&gt;IF/ID&lt;/font&gt;" style="text;html=1;align=center;verticalAlign=middle;whiteSpace=wrap;rounded=0;fontSize=20;fontFamily=Architects Daughter;fontSource=https%3A%2F%2Ffonts.googleapis.com%2Fcss%3Ffamily%3DArchitects%2BDaughter;" parent="1" vertex="1">
          <mxGeometry x="368.5" y="87" width="60" height="30" as="geometry" />
        </mxCell>
        <mxCell id="MsynWxrNxUOjoEWNQWUF-37" value="" style="endArrow=blockThin;html=1;rounded=0;fontFamily=Architects Daughter;fontSource=https://fonts.googleapis.com/css?family=Architects+Daughter;fontSize=16;startSize=14;endSize=14;sourcePerimeterSpacing=8;targetPerimeterSpacing=8;curved=1;exitX=1;exitY=0.5;exitDx=0;exitDy=0;entryX=0.205;entryY=1.034;entryDx=0;entryDy=0;endFill=1;entryPerimeter=0;" parent="1" target="MsynWxrNxUOjoEWNQWUF-13" edge="1">
          <mxGeometry width="50" height="50" relative="1" as="geometry">
            <mxPoint x="319" y="204" as="sourcePoint" />
            <mxPoint x="345" y="204" as="targetPoint" />
          </mxGeometry>
        </mxCell>
        <mxCell id="MsynWxrNxUOjoEWNQWUF-38" value="&lt;font style=&quot;font-size: 14px;&quot; face=&quot;Lucida Console&quot;&gt;Register&amp;nbsp;&lt;/font&gt;&lt;div style=&quot;font-size: 14px;&quot;&gt;&lt;font style=&quot;font-size: 14px;&quot; face=&quot;Lucida Console&quot;&gt;file&lt;/font&gt;&lt;/div&gt;" style="rounded=1;whiteSpace=wrap;html=1;fontFamily=Architects Daughter;fontSource=https%3A%2F%2Ffonts.googleapis.com%2Fcss%3Ffamily%3DArchitects%2BDaughter;" parent="1" vertex="1">
          <mxGeometry x="562" y="301" width="104" height="179.25" as="geometry" />
        </mxCell>
        <mxCell id="MsynWxrNxUOjoEWNQWUF-39" value="&lt;font style=&quot;font-size: 14px;&quot; face=&quot;Lucida Console&quot;&gt;&amp;nbsp;Hazard&amp;nbsp;&lt;/font&gt;&lt;div style=&quot;font-size: 14px;&quot;&gt;&lt;font style=&quot;font-size: 14px;&quot; face=&quot;Lucida Console&quot;&gt;detection&lt;/font&gt;&lt;/div&gt;" style="ellipse;whiteSpace=wrap;html=1;fontFamily=Architects Daughter;fontSource=https%3A%2F%2Ffonts.googleapis.com%2Fcss%3Ffamily%3DArchitects%2BDaughter;" parent="1" vertex="1">
          <mxGeometry x="455" y="-26" width="135" height="76" as="geometry" />
        </mxCell>
        <mxCell id="MsynWxrNxUOjoEWNQWUF-40" value="&lt;font face=&quot;Lucida Console&quot;&gt;&lt;span style=&quot;font-size: 14px;&quot;&gt;Control&lt;/span&gt;&lt;/font&gt;" style="ellipse;whiteSpace=wrap;html=1;fontFamily=Architects Daughter;fontSource=https%3A%2F%2Ffonts.googleapis.com%2Fcss%3Ffamily%3DArchitects%2BDaughter;direction=south;" parent="1" vertex="1">
          <mxGeometry x="488" y="58" width="69" height="88" as="geometry" />
        </mxCell>
        <mxCell id="MsynWxrNxUOjoEWNQWUF-41" value="" style="endArrow=none;html=1;rounded=0;fontFamily=Architects Daughter;fontSource=https%3A%2F%2Ffonts.googleapis.com%2Fcss%3Ffamily%3DArchitects%2BDaughter;fontSize=16;startSize=14;endSize=14;sourcePerimeterSpacing=8;targetPerimeterSpacing=8;curved=1;exitX=0.5;exitY=0;exitDx=0;exitDy=0;" parent="1" edge="1">
          <mxGeometry width="50" height="50" relative="1" as="geometry">
            <mxPoint x="414" y="329" as="sourcePoint" />
            <mxPoint x="444" y="329" as="targetPoint" />
          </mxGeometry>
        </mxCell>
        <mxCell id="MsynWxrNxUOjoEWNQWUF-42" value="" style="endArrow=none;html=1;rounded=0;fontFamily=Architects Daughter;fontSource=https%3A%2F%2Ffonts.googleapis.com%2Fcss%3Ffamily%3DArchitects%2BDaughter;fontSize=16;startSize=14;endSize=14;sourcePerimeterSpacing=8;targetPerimeterSpacing=8;curved=1;" parent="1" edge="1">
          <mxGeometry width="50" height="50" relative="1" as="geometry">
            <mxPoint x="444" y="605" as="sourcePoint" />
            <mxPoint x="444" y="38" as="targetPoint" />
          </mxGeometry>
        </mxCell>
        <mxCell id="MsynWxrNxUOjoEWNQWUF-43" value="" style="endArrow=blockThin;html=1;rounded=0;fontFamily=Architects Daughter;fontSource=https://fonts.googleapis.com/css?family=Architects+Daughter;fontSize=16;startSize=14;endSize=14;sourcePerimeterSpacing=8;targetPerimeterSpacing=8;curved=1;entryX=-0.004;entryY=0.15;entryDx=0;entryDy=0;endFill=1;entryPerimeter=0;" parent="1" edge="1">
          <mxGeometry width="50" height="50" relative="1" as="geometry">
            <mxPoint x="445" y="318" as="sourcePoint" />
            <mxPoint x="561.5840000000001" y="317.88750000000005" as="targetPoint" />
          </mxGeometry>
        </mxCell>
        <mxCell id="MsynWxrNxUOjoEWNQWUF-44" value="" style="endArrow=blockThin;html=1;rounded=0;fontFamily=Architects Daughter;fontSource=https://fonts.googleapis.com/css?family=Architects+Daughter;fontSize=16;startSize=14;endSize=14;sourcePerimeterSpacing=8;targetPerimeterSpacing=8;curved=1;entryX=-0.002;entryY=0.272;entryDx=0;entryDy=0;endFill=1;entryPerimeter=0;" parent="1" target="MsynWxrNxUOjoEWNQWUF-38" edge="1">
          <mxGeometry width="50" height="50" relative="1" as="geometry">
            <mxPoint x="445" y="350" as="sourcePoint" />
            <mxPoint x="518" y="348.11" as="targetPoint" />
          </mxGeometry>
        </mxCell>
        <mxCell id="MsynWxrNxUOjoEWNQWUF-46" value="&lt;font style=&quot;font-size: 12px;&quot; face=&quot;Lucida Console&quot;&gt;Sign&lt;/font&gt;&lt;div style=&quot;&quot;&gt;&lt;font style=&quot;font-size: 12px;&quot; face=&quot;Lucida Console&quot;&gt;Extend&lt;/font&gt;&lt;/div&gt;" style="ellipse;whiteSpace=wrap;html=1;fontFamily=Architects Daughter;fontSource=https%3A%2F%2Ffonts.googleapis.com%2Fcss%3Ffamily%3DArchitects%2BDaughter;direction=south;" parent="1" vertex="1">
          <mxGeometry x="586.5" y="530" width="55" height="59" as="geometry" />
        </mxCell>
        <mxCell id="MsynWxrNxUOjoEWNQWUF-47" value="" style="endArrow=blockThin;html=1;rounded=0;fontFamily=Architects Daughter;fontSource=https://fonts.googleapis.com/css?family=Architects+Daughter;fontSize=16;startSize=14;endSize=14;sourcePerimeterSpacing=8;targetPerimeterSpacing=8;curved=1;entryX=0.5;entryY=1;entryDx=0;entryDy=0;endFill=1;" parent="1" target="MsynWxrNxUOjoEWNQWUF-46" edge="1">
          <mxGeometry width="50" height="50" relative="1" as="geometry">
            <mxPoint x="444" y="559" as="sourcePoint" />
            <mxPoint x="509" y="559.94" as="targetPoint" />
          </mxGeometry>
        </mxCell>
        <mxCell id="MsynWxrNxUOjoEWNQWUF-50" value="" style="endArrow=none;html=1;rounded=0;fontFamily=Architects Daughter;fontSource=https%3A%2F%2Ffonts.googleapis.com%2Fcss%3Ffamily%3DArchitects%2BDaughter;fontSize=16;startSize=14;endSize=14;sourcePerimeterSpacing=8;targetPerimeterSpacing=8;curved=1;" parent="1" edge="1">
          <mxGeometry width="50" height="50" relative="1" as="geometry">
            <mxPoint x="573" y="173" as="sourcePoint" />
            <mxPoint x="573" y="152" as="targetPoint" />
          </mxGeometry>
        </mxCell>
        <mxCell id="MsynWxrNxUOjoEWNQWUF-51" value="" style="endArrow=none;html=1;rounded=0;fontFamily=Architects Daughter;fontSource=https%3A%2F%2Ffonts.googleapis.com%2Fcss%3Ffamily%3DArchitects%2BDaughter;fontSize=16;startSize=14;endSize=14;sourcePerimeterSpacing=8;targetPerimeterSpacing=8;curved=1;" parent="1" edge="1">
          <mxGeometry width="50" height="50" relative="1" as="geometry">
            <mxPoint x="573" y="201" as="sourcePoint" />
            <mxPoint x="573" y="180" as="targetPoint" />
          </mxGeometry>
        </mxCell>
        <mxCell id="MsynWxrNxUOjoEWNQWUF-52" value="" style="endArrow=none;html=1;rounded=0;fontFamily=Architects Daughter;fontSource=https%3A%2F%2Ffonts.googleapis.com%2Fcss%3Ffamily%3DArchitects%2BDaughter;fontSize=16;startSize=14;endSize=14;sourcePerimeterSpacing=8;targetPerimeterSpacing=8;curved=1;" parent="1" edge="1">
          <mxGeometry width="50" height="50" relative="1" as="geometry">
            <mxPoint x="598" y="192" as="sourcePoint" />
            <mxPoint x="598" y="161" as="targetPoint" />
          </mxGeometry>
        </mxCell>
        <mxCell id="MsynWxrNxUOjoEWNQWUF-53" value="" style="endArrow=none;html=1;rounded=0;fontFamily=Architects Daughter;fontSource=https%3A%2F%2Ffonts.googleapis.com%2Fcss%3Ffamily%3DArchitects%2BDaughter;fontSize=16;startSize=14;endSize=14;sourcePerimeterSpacing=8;targetPerimeterSpacing=8;curved=1;" parent="1" edge="1">
          <mxGeometry width="50" height="50" relative="1" as="geometry">
            <mxPoint x="573" y="152" as="sourcePoint" />
            <mxPoint x="598" y="161" as="targetPoint" />
          </mxGeometry>
        </mxCell>
        <mxCell id="MsynWxrNxUOjoEWNQWUF-54" value="" style="endArrow=none;html=1;rounded=0;fontFamily=Architects Daughter;fontSource=https%3A%2F%2Ffonts.googleapis.com%2Fcss%3Ffamily%3DArchitects%2BDaughter;fontSize=16;startSize=14;endSize=14;sourcePerimeterSpacing=8;targetPerimeterSpacing=8;curved=1;" parent="1" edge="1">
          <mxGeometry width="50" height="50" relative="1" as="geometry">
            <mxPoint x="573" y="201" as="sourcePoint" />
            <mxPoint x="598" y="192" as="targetPoint" />
          </mxGeometry>
        </mxCell>
        <mxCell id="MsynWxrNxUOjoEWNQWUF-55" value="" style="endArrow=none;html=1;rounded=0;fontFamily=Architects Daughter;fontSource=https%3A%2F%2Ffonts.googleapis.com%2Fcss%3Ffamily%3DArchitects%2BDaughter;fontSize=16;startSize=14;endSize=14;sourcePerimeterSpacing=8;targetPerimeterSpacing=8;curved=1;" parent="1" edge="1">
          <mxGeometry width="50" height="50" relative="1" as="geometry">
            <mxPoint x="579" y="176" as="sourcePoint" />
            <mxPoint x="573" y="173" as="targetPoint" />
          </mxGeometry>
        </mxCell>
        <mxCell id="MsynWxrNxUOjoEWNQWUF-56" value="" style="endArrow=none;html=1;rounded=0;fontFamily=Architects Daughter;fontSource=https%3A%2F%2Ffonts.googleapis.com%2Fcss%3Ffamily%3DArchitects%2BDaughter;fontSize=16;startSize=14;endSize=14;sourcePerimeterSpacing=8;targetPerimeterSpacing=8;curved=1;" parent="1" edge="1">
          <mxGeometry width="50" height="50" relative="1" as="geometry">
            <mxPoint x="573" y="180" as="sourcePoint" />
            <mxPoint x="579" y="176" as="targetPoint" />
          </mxGeometry>
        </mxCell>
        <mxCell id="MsynWxrNxUOjoEWNQWUF-57" value="&lt;font style=&quot;font-size: 14px;&quot; face=&quot;Lucida Console&quot;&gt;+&lt;/font&gt;" style="text;html=1;align=center;verticalAlign=middle;whiteSpace=wrap;rounded=0;fontSize=20;fontFamily=Architects Daughter;fontSource=https%3A%2F%2Ffonts.googleapis.com%2Fcss%3Ffamily%3DArchitects%2BDaughter;" parent="1" vertex="1">
          <mxGeometry x="578" y="167" width="18" height="11" as="geometry" />
        </mxCell>
        <mxCell id="MsynWxrNxUOjoEWNQWUF-58" value="" style="endArrow=blockThin;html=1;rounded=0;fontFamily=Architects Daughter;fontSource=https://fonts.googleapis.com/css?family=Architects+Daughter;fontSize=16;startSize=14;endSize=14;sourcePerimeterSpacing=8;targetPerimeterSpacing=8;curved=1;endFill=1;entryX=0;entryY=0.5;entryDx=0;entryDy=0;" parent="1" target="MsynWxrNxUOjoEWNQWUF-77" edge="1">
          <mxGeometry width="50" height="50" relative="1" as="geometry">
            <mxPoint x="665" y="12" as="sourcePoint" />
            <mxPoint x="673" y="35" as="targetPoint" />
          </mxGeometry>
        </mxCell>
        <mxCell id="MsynWxrNxUOjoEWNQWUF-59" value="" style="endArrow=blockThin;html=1;rounded=0;fontFamily=Architects Daughter;fontSource=https://fonts.googleapis.com/css?family=Architects+Daughter;fontSize=16;startSize=14;endSize=14;sourcePerimeterSpacing=8;targetPerimeterSpacing=8;curved=1;endFill=1;exitX=0.182;exitY=-0.002;exitDx=0;exitDy=0;exitPerimeter=0;" parent="1" edge="1">
          <mxGeometry width="50" height="50" relative="1" as="geometry">
            <mxPoint x="414.002" y="161.168" as="sourcePoint" />
            <mxPoint x="572.94" y="161" as="targetPoint" />
          </mxGeometry>
        </mxCell>
        <mxCell id="MsynWxrNxUOjoEWNQWUF-60" value="" style="endArrow=blockThin;html=1;rounded=0;fontFamily=Architects Daughter;fontSource=https://fonts.googleapis.com/css?family=Architects+Daughter;fontSize=16;startSize=14;endSize=14;sourcePerimeterSpacing=8;targetPerimeterSpacing=8;curved=1;exitX=0.5;exitY=0;exitDx=0;exitDy=0;endFill=1;" parent="1" source="MsynWxrNxUOjoEWNQWUF-46" edge="1">
          <mxGeometry width="50" height="50" relative="1" as="geometry">
            <mxPoint x="645" y="558.4100000000001" as="sourcePoint" />
            <mxPoint x="703" y="559" as="targetPoint" />
          </mxGeometry>
        </mxCell>
        <mxCell id="MsynWxrNxUOjoEWNQWUF-61" value="" style="endArrow=none;html=1;rounded=0;fontFamily=Architects Daughter;fontSource=https%3A%2F%2Ffonts.googleapis.com%2Fcss%3Ffamily%3DArchitects%2BDaughter;fontSize=16;startSize=14;endSize=14;sourcePerimeterSpacing=8;targetPerimeterSpacing=8;curved=1;" parent="1" edge="1">
          <mxGeometry width="50" height="50" relative="1" as="geometry">
            <mxPoint x="666" y="557" as="sourcePoint" />
            <mxPoint x="666" y="512" as="targetPoint" />
          </mxGeometry>
        </mxCell>
        <mxCell id="MsynWxrNxUOjoEWNQWUF-62" value="" style="endArrow=none;html=1;rounded=0;fontFamily=Architects Daughter;fontSource=https%3A%2F%2Ffonts.googleapis.com%2Fcss%3Ffamily%3DArchitects%2BDaughter;fontSize=16;startSize=14;endSize=14;sourcePerimeterSpacing=8;targetPerimeterSpacing=8;curved=1;" parent="1" edge="1">
          <mxGeometry width="50" height="50" relative="1" as="geometry">
            <mxPoint x="488" y="512" as="sourcePoint" />
            <mxPoint x="666" y="512" as="targetPoint" />
          </mxGeometry>
        </mxCell>
        <mxCell id="MsynWxrNxUOjoEWNQWUF-66" value="&lt;b&gt;&lt;font face=&quot;Lucida Console&quot; style=&quot;font-size: 25px;&quot;&gt;.&lt;/font&gt;&lt;/b&gt;" style="text;html=1;align=center;verticalAlign=middle;resizable=0;points=[];autosize=1;strokeColor=none;fillColor=none;fontSize=20;fontFamily=Architects Daughter;fontSource=https%3A%2F%2Ffonts.googleapis.com%2Fcss%3Ffamily%3DArchitects%2BDaughter;" parent="1" vertex="1">
          <mxGeometry x="648" y="531" width="34" height="42" as="geometry" />
        </mxCell>
        <mxCell id="MsynWxrNxUOjoEWNQWUF-68" value="&lt;b&gt;&lt;font face=&quot;Lucida Console&quot; style=&quot;font-size: 25px;&quot;&gt;.&lt;/font&gt;&lt;/b&gt;" style="text;html=1;align=center;verticalAlign=middle;resizable=0;points=[];autosize=1;strokeColor=none;fillColor=none;fontSize=20;fontFamily=Architects Daughter;fontSource=https%3A%2F%2Ffonts.googleapis.com%2Fcss%3Ffamily%3DArchitects%2BDaughter;" parent="1" vertex="1">
          <mxGeometry x="237" y="302" width="34" height="42" as="geometry" />
        </mxCell>
        <mxCell id="MsynWxrNxUOjoEWNQWUF-75" value="" style="endArrow=none;html=1;rounded=0;fontFamily=Architects Daughter;fontSource=https%3A%2F%2Ffonts.googleapis.com%2Fcss%3Ffamily%3DArchitects%2BDaughter;fontSize=16;startSize=14;endSize=14;sourcePerimeterSpacing=8;targetPerimeterSpacing=8;curved=1;" parent="1" edge="1">
          <mxGeometry width="50" height="50" relative="1" as="geometry">
            <mxPoint x="488" y="190" as="sourcePoint" />
            <mxPoint x="488" y="512" as="targetPoint" />
          </mxGeometry>
        </mxCell>
        <mxCell id="MsynWxrNxUOjoEWNQWUF-76" value="" style="rounded=1;whiteSpace=wrap;html=1;fontFamily=Architects Daughter;fontSource=https%3A%2F%2Ffonts.googleapis.com%2Fcss%3Ffamily%3DArchitects%2BDaughter;direction=south;" parent="1" vertex="1">
          <mxGeometry x="706" y="-75" width="31" height="699" as="geometry" />
        </mxCell>
        <mxCell id="MsynWxrNxUOjoEWNQWUF-77" value="&lt;font face=&quot;Lucida Console&quot;&gt;Mux&lt;/font&gt;" style="shape=trapezoid;perimeter=trapezoidPerimeter;whiteSpace=wrap;html=1;fixedSize=1;fontFamily=Architects Daughter;fontSource=https%3A%2F%2Ffonts.googleapis.com%2Fcss%3Ffamily%3DArchitects%2BDaughter;direction=south;" parent="1" vertex="1">
          <mxGeometry x="650" y="81" width="30" height="83" as="geometry" />
        </mxCell>
        <mxCell id="MsynWxrNxUOjoEWNQWUF-81" value="" style="endArrow=blockThin;html=1;rounded=0;fontFamily=Architects Daughter;fontSource=https://fonts.googleapis.com/css?family=Architects+Daughter;fontSize=16;startSize=14;endSize=14;sourcePerimeterSpacing=8;targetPerimeterSpacing=8;curved=1;exitX=0.5;exitY=0;exitDx=0;exitDy=0;endFill=1;" parent="1" source="MsynWxrNxUOjoEWNQWUF-77" edge="1">
          <mxGeometry width="50" height="50" relative="1" as="geometry">
            <mxPoint x="691.5" y="127.71000000000001" as="sourcePoint" />
            <mxPoint x="704" y="122" as="targetPoint" />
          </mxGeometry>
        </mxCell>
        <mxCell id="MsynWxrNxUOjoEWNQWUF-82" value="" style="endArrow=none;html=1;rounded=0;fontFamily=Architects Daughter;fontSource=https%3A%2F%2Ffonts.googleapis.com%2Fcss%3Ffamily%3DArchitects%2BDaughter;fontSize=16;startSize=14;endSize=14;sourcePerimeterSpacing=8;targetPerimeterSpacing=8;curved=1;exitX=1;exitY=1;exitDx=0;exitDy=0;" parent="1" edge="1">
          <mxGeometry width="50" height="50" relative="1" as="geometry">
            <mxPoint x="598" y="178" as="sourcePoint" />
            <mxPoint x="615" y="178" as="targetPoint" />
          </mxGeometry>
        </mxCell>
        <mxCell id="MsynWxrNxUOjoEWNQWUF-83" value="" style="endArrow=none;html=1;rounded=0;fontFamily=Architects Daughter;fontSource=https%3A%2F%2Ffonts.googleapis.com%2Fcss%3Ffamily%3DArchitects%2BDaughter;fontSize=16;startSize=14;endSize=14;sourcePerimeterSpacing=8;targetPerimeterSpacing=8;curved=1;" parent="1" edge="1">
          <mxGeometry width="50" height="50" relative="1" as="geometry">
            <mxPoint x="615" y="178" as="sourcePoint" />
            <mxPoint x="615" y="-65" as="targetPoint" />
          </mxGeometry>
        </mxCell>
        <mxCell id="MsynWxrNxUOjoEWNQWUF-84" value="" style="endArrow=none;html=1;rounded=0;fontFamily=Architects Daughter;fontSource=https%3A%2F%2Ffonts.googleapis.com%2Fcss%3Ffamily%3DArchitects%2BDaughter;fontSize=16;startSize=14;endSize=14;sourcePerimeterSpacing=8;targetPerimeterSpacing=8;curved=1;" parent="1" edge="1">
          <mxGeometry width="50" height="50" relative="1" as="geometry">
            <mxPoint x="87" y="-65" as="sourcePoint" />
            <mxPoint x="615" y="-65" as="targetPoint" />
          </mxGeometry>
        </mxCell>
        <mxCell id="MsynWxrNxUOjoEWNQWUF-85" value="" style="endArrow=none;html=1;rounded=0;fontFamily=Architects Daughter;fontSource=https%3A%2F%2Ffonts.googleapis.com%2Fcss%3Ffamily%3DArchitects%2BDaughter;fontSize=16;startSize=14;endSize=14;sourcePerimeterSpacing=8;targetPerimeterSpacing=8;curved=1;" parent="1" edge="1">
          <mxGeometry width="50" height="50" relative="1" as="geometry">
            <mxPoint x="87" y="347" as="sourcePoint" />
            <mxPoint x="87" y="-65" as="targetPoint" />
          </mxGeometry>
        </mxCell>
        <mxCell id="MsynWxrNxUOjoEWNQWUF-86" value="" style="endArrow=none;html=1;rounded=0;fontFamily=Architects Daughter;fontSource=https%3A%2F%2Ffonts.googleapis.com%2Fcss%3Ffamily%3DArchitects%2BDaughter;fontSize=16;startSize=14;endSize=14;sourcePerimeterSpacing=8;targetPerimeterSpacing=8;curved=1;" parent="1" edge="1">
          <mxGeometry width="50" height="50" relative="1" as="geometry">
            <mxPoint x="343" y="204" as="sourcePoint" />
            <mxPoint x="343" y="148" as="targetPoint" />
          </mxGeometry>
        </mxCell>
        <mxCell id="MsynWxrNxUOjoEWNQWUF-87" value="" style="endArrow=none;html=1;rounded=0;fontFamily=Architects Daughter;fontSource=https%3A%2F%2Ffonts.googleapis.com%2Fcss%3Ffamily%3DArchitects%2BDaughter;fontSize=16;startSize=14;endSize=14;sourcePerimeterSpacing=8;targetPerimeterSpacing=8;curved=1;" parent="1" edge="1">
          <mxGeometry width="50" height="50" relative="1" as="geometry">
            <mxPoint x="111" y="148" as="sourcePoint" />
            <mxPoint x="343" y="148" as="targetPoint" />
          </mxGeometry>
        </mxCell>
        <mxCell id="MsynWxrNxUOjoEWNQWUF-88" value="" style="endArrow=none;html=1;rounded=0;fontFamily=Architects Daughter;fontSource=https%3A%2F%2Ffonts.googleapis.com%2Fcss%3Ffamily%3DArchitects%2BDaughter;fontSize=16;startSize=14;endSize=14;sourcePerimeterSpacing=8;targetPerimeterSpacing=8;curved=1;" parent="1" edge="1">
          <mxGeometry width="50" height="50" relative="1" as="geometry">
            <mxPoint x="111" y="313" as="sourcePoint" />
            <mxPoint x="111" y="148" as="targetPoint" />
          </mxGeometry>
        </mxCell>
        <mxCell id="MsynWxrNxUOjoEWNQWUF-95" value="" style="endArrow=blockThin;html=1;rounded=0;fontFamily=Architects Daughter;fontSource=https%3A%2F%2Ffonts.googleapis.com%2Fcss%3Ffamily%3DArchitects%2BDaughter;fontSize=16;startSize=14;endSize=14;sourcePerimeterSpacing=8;targetPerimeterSpacing=8;curved=1;exitX=0.5;exitY=0;exitDx=0;exitDy=0;endFill=1;" parent="1" edge="1">
          <mxGeometry width="50" height="50" relative="1" as="geometry">
            <mxPoint x="111" y="313.11" as="sourcePoint" />
            <mxPoint x="137" y="313" as="targetPoint" />
          </mxGeometry>
        </mxCell>
        <mxCell id="MsynWxrNxUOjoEWNQWUF-96" value="" style="endArrow=blockThin;html=1;rounded=0;fontFamily=Architects Daughter;fontSource=https%3A%2F%2Ffonts.googleapis.com%2Fcss%3Ffamily%3DArchitects%2BDaughter;fontSize=16;startSize=14;endSize=14;sourcePerimeterSpacing=8;targetPerimeterSpacing=8;curved=1;endFill=1;" parent="1" edge="1">
          <mxGeometry width="50" height="50" relative="1" as="geometry">
            <mxPoint x="87" y="347" as="sourcePoint" />
            <mxPoint x="137" y="347" as="targetPoint" />
          </mxGeometry>
        </mxCell>
        <mxCell id="MsynWxrNxUOjoEWNQWUF-102" value="" style="endArrow=blockThin;html=1;rounded=0;fontFamily=Architects Daughter;fontSource=https://fonts.googleapis.com/css?family=Architects+Daughter;fontSize=16;startSize=14;endSize=14;sourcePerimeterSpacing=8;targetPerimeterSpacing=8;curved=1;exitX=0.5;exitY=0;exitDx=0;exitDy=0;entryX=0.112;entryY=1.021;entryDx=0;entryDy=0;endFill=1;entryPerimeter=0;" parent="1" edge="1">
          <mxGeometry width="50" height="50" relative="1" as="geometry">
            <mxPoint x="624.65" y="143.17000000000002" as="sourcePoint" />
            <mxPoint x="649.65" y="143.17000000000002" as="targetPoint" />
          </mxGeometry>
        </mxCell>
        <mxCell id="MsynWxrNxUOjoEWNQWUF-103" value="&lt;font style=&quot;font-size: 14px;&quot; face=&quot;Lucida Console&quot;&gt;0&lt;/font&gt;" style="text;html=1;align=center;verticalAlign=middle;whiteSpace=wrap;rounded=0;fontSize=20;fontFamily=Architects Daughter;fontSource=https%3A%2F%2Ffonts.googleapis.com%2Fcss%3Ffamily%3DArchitects%2BDaughter;" parent="1" vertex="1">
          <mxGeometry x="574" y="128" width="60" height="30" as="geometry" />
        </mxCell>
        <mxCell id="MsynWxrNxUOjoEWNQWUF-112" value="" style="endArrow=blockThin;html=1;rounded=0;fontFamily=Architects Daughter;fontSource=https://fonts.googleapis.com/css?family=Architects+Daughter;fontSize=16;startSize=14;endSize=14;sourcePerimeterSpacing=8;targetPerimeterSpacing=8;curved=1;endFill=1;" parent="1" edge="1">
          <mxGeometry width="50" height="50" relative="1" as="geometry">
            <mxPoint x="444" y="605" as="sourcePoint" />
            <mxPoint x="702" y="605" as="targetPoint" />
          </mxGeometry>
        </mxCell>
        <mxCell id="MsynWxrNxUOjoEWNQWUF-114" value="" style="endArrow=blockThin;html=1;rounded=0;fontFamily=Architects Daughter;fontSource=https://fonts.googleapis.com/css?family=Architects+Daughter;fontSize=16;startSize=14;endSize=14;sourcePerimeterSpacing=8;targetPerimeterSpacing=8;curved=1;exitX=0.5;exitY=0;exitDx=0;exitDy=0;endFill=1;" parent="1" edge="1">
          <mxGeometry width="50" height="50" relative="1" as="geometry">
            <mxPoint x="666" y="340.86" as="sourcePoint" />
            <mxPoint x="703" y="341" as="targetPoint" />
          </mxGeometry>
        </mxCell>
        <mxCell id="MsynWxrNxUOjoEWNQWUF-115" value="" style="endArrow=blockThin;html=1;rounded=0;fontFamily=Architects Daughter;fontSource=https://fonts.googleapis.com/css?family=Architects+Daughter;fontSize=16;startSize=14;endSize=14;sourcePerimeterSpacing=8;targetPerimeterSpacing=8;curved=1;exitX=0.5;exitY=0;exitDx=0;exitDy=0;endFill=1;" parent="1" edge="1">
          <mxGeometry width="50" height="50" relative="1" as="geometry">
            <mxPoint x="666" y="435" as="sourcePoint" />
            <mxPoint x="701" y="435" as="targetPoint" />
          </mxGeometry>
        </mxCell>
        <mxCell id="MsynWxrNxUOjoEWNQWUF-116" value="&lt;font style=&quot;font-size: 10px;&quot; face=&quot;Lucida Console&quot;&gt;RR0&lt;/font&gt;" style="text;html=1;align=center;verticalAlign=middle;whiteSpace=wrap;rounded=0;fontSize=20;fontFamily=Architects Daughter;fontSource=https%3A%2F%2Ffonts.googleapis.com%2Fcss%3Ffamily%3DArchitects%2BDaughter;" parent="1" vertex="1">
          <mxGeometry x="558" y="305" width="41" height="19.5" as="geometry" />
        </mxCell>
        <mxCell id="MsynWxrNxUOjoEWNQWUF-117" value="&lt;font style=&quot;font-size: 10px;&quot; face=&quot;Lucida Console&quot;&gt;RR1&lt;/font&gt;" style="text;html=1;align=center;verticalAlign=middle;whiteSpace=wrap;rounded=0;fontSize=20;fontFamily=Architects Daughter;fontSource=https%3A%2F%2Ffonts.googleapis.com%2Fcss%3Ffamily%3DArchitects%2BDaughter;" parent="1" vertex="1">
          <mxGeometry x="558" y="338" width="41" height="19.5" as="geometry" />
        </mxCell>
        <mxCell id="MsynWxrNxUOjoEWNQWUF-118" value="&lt;font style=&quot;font-size: 10px;&quot; face=&quot;Lucida Console&quot;&gt;RD0&lt;/font&gt;" style="text;html=1;align=center;verticalAlign=middle;whiteSpace=wrap;rounded=0;fontSize=20;fontFamily=Architects Daughter;fontSource=https%3A%2F%2Ffonts.googleapis.com%2Fcss%3Ffamily%3DArchitects%2BDaughter;" parent="1" vertex="1">
          <mxGeometry x="628" y="328" width="41" height="19.5" as="geometry" />
        </mxCell>
        <mxCell id="MsynWxrNxUOjoEWNQWUF-119" value="&lt;font style=&quot;font-size: 10px;&quot; face=&quot;Lucida Console&quot;&gt;RD1&lt;/font&gt;" style="text;html=1;align=center;verticalAlign=middle;whiteSpace=wrap;rounded=0;fontSize=20;fontFamily=Architects Daughter;fontSource=https%3A%2F%2Ffonts.googleapis.com%2Fcss%3Ffamily%3DArchitects%2BDaughter;" parent="1" vertex="1">
          <mxGeometry x="628" y="423.5" width="41" height="19.5" as="geometry" />
        </mxCell>
        <mxCell id="MsynWxrNxUOjoEWNQWUF-120" value="&lt;font style=&quot;font-size: 14px;&quot; face=&quot;Lucida Console&quot;&gt;ID/EX&lt;/font&gt;" style="text;html=1;align=center;verticalAlign=middle;whiteSpace=wrap;rounded=0;fontSize=20;fontFamily=Architects Daughter;fontSource=https%3A%2F%2Ffonts.googleapis.com%2Fcss%3Ffamily%3DArchitects%2BDaughter;" parent="1" vertex="1">
          <mxGeometry x="685" y="-115" width="60" height="30" as="geometry" />
        </mxCell>
        <mxCell id="MsynWxrNxUOjoEWNQWUF-121" value="" style="endArrow=none;html=1;rounded=0;fontFamily=Architects Daughter;fontSource=https%3A%2F%2Ffonts.googleapis.com%2Fcss%3Ffamily%3DArchitects%2BDaughter;fontSize=16;startSize=14;endSize=14;sourcePerimeterSpacing=8;targetPerimeterSpacing=8;curved=1;" parent="1" edge="1">
          <mxGeometry width="50" height="50" relative="1" as="geometry">
            <mxPoint x="590" y="12.5" as="sourcePoint" />
            <mxPoint x="665" y="12" as="targetPoint" />
          </mxGeometry>
        </mxCell>
        <mxCell id="MsynWxrNxUOjoEWNQWUF-123" value="" style="endArrow=blockThin;html=1;rounded=0;fontFamily=Architects Daughter;fontSource=https://fonts.googleapis.com/css?family=Architects+Daughter;fontSize=16;startSize=14;endSize=14;sourcePerimeterSpacing=8;targetPerimeterSpacing=8;curved=1;endFill=1;" parent="1" edge="1">
          <mxGeometry width="50" height="50" relative="1" as="geometry">
            <mxPoint x="488" y="190" as="sourcePoint" />
            <mxPoint x="572" y="189.82999999999998" as="targetPoint" />
          </mxGeometry>
        </mxCell>
        <mxCell id="MsynWxrNxUOjoEWNQWUF-124" value="" style="endArrow=none;html=1;rounded=0;fontFamily=Architects Daughter;fontSource=https%3A%2F%2Ffonts.googleapis.com%2Fcss%3Ffamily%3DArchitects%2BDaughter;fontSize=16;startSize=14;endSize=14;sourcePerimeterSpacing=8;targetPerimeterSpacing=8;curved=1;exitX=0.266;exitY=0.065;exitDx=0;exitDy=0;exitPerimeter=0;" parent="1" source="MsynWxrNxUOjoEWNQWUF-40" edge="1">
          <mxGeometry width="50" height="50" relative="1" as="geometry">
            <mxPoint x="547" y="221" as="sourcePoint" />
            <mxPoint x="601" y="81" as="targetPoint" />
          </mxGeometry>
        </mxCell>
        <mxCell id="MsynWxrNxUOjoEWNQWUF-125" value="" style="endArrow=none;html=1;rounded=0;fontFamily=Architects Daughter;fontSource=https%3A%2F%2Ffonts.googleapis.com%2Fcss%3Ffamily%3DArchitects%2BDaughter;fontSize=16;startSize=14;endSize=14;sourcePerimeterSpacing=8;targetPerimeterSpacing=8;curved=1;" parent="1" edge="1">
          <mxGeometry width="50" height="50" relative="1" as="geometry">
            <mxPoint x="601" y="-49" as="sourcePoint" />
            <mxPoint x="601" y="81" as="targetPoint" />
          </mxGeometry>
        </mxCell>
        <mxCell id="MsynWxrNxUOjoEWNQWUF-126" value="" style="endArrow=none;html=1;rounded=0;fontFamily=Architects Daughter;fontSource=https%3A%2F%2Ffonts.googleapis.com%2Fcss%3Ffamily%3DArchitects%2BDaughter;fontSize=16;startSize=14;endSize=14;sourcePerimeterSpacing=8;targetPerimeterSpacing=8;curved=1;" parent="1" edge="1">
          <mxGeometry width="50" height="50" relative="1" as="geometry">
            <mxPoint x="61" y="-49" as="sourcePoint" />
            <mxPoint x="602" y="-49" as="targetPoint" />
          </mxGeometry>
        </mxCell>
        <mxCell id="MsynWxrNxUOjoEWNQWUF-127" value="" style="endArrow=none;html=1;rounded=0;fontFamily=Architects Daughter;fontSource=https%3A%2F%2Ffonts.googleapis.com%2Fcss%3Ffamily%3DArchitects%2BDaughter;fontSize=16;startSize=14;endSize=14;sourcePerimeterSpacing=8;targetPerimeterSpacing=8;curved=1;" parent="1" edge="1">
          <mxGeometry width="50" height="50" relative="1" as="geometry">
            <mxPoint x="61" y="429" as="sourcePoint" />
            <mxPoint x="62" y="-48" as="targetPoint" />
          </mxGeometry>
        </mxCell>
        <mxCell id="MsynWxrNxUOjoEWNQWUF-128" value="" style="endArrow=blockThin;html=1;rounded=0;fontFamily=Architects Daughter;fontSource=https%3A%2F%2Ffonts.googleapis.com%2Fcss%3Ffamily%3DArchitects%2BDaughter;fontSize=16;startSize=14;endSize=14;sourcePerimeterSpacing=8;targetPerimeterSpacing=8;curved=1;endFill=1;" parent="1" edge="1">
          <mxGeometry width="50" height="50" relative="1" as="geometry">
            <mxPoint x="61" y="429" as="sourcePoint" />
            <mxPoint x="382" y="428" as="targetPoint" />
          </mxGeometry>
        </mxCell>
        <mxCell id="MsynWxrNxUOjoEWNQWUF-129" value="" style="endArrow=none;html=1;rounded=0;fontFamily=Architects Daughter;fontSource=https%3A%2F%2Ffonts.googleapis.com%2Fcss%3Ffamily%3DArchitects%2BDaughter;fontSize=16;startSize=14;endSize=14;sourcePerimeterSpacing=8;targetPerimeterSpacing=8;curved=1;" parent="1" edge="1">
          <mxGeometry width="50" height="50" relative="1" as="geometry">
            <mxPoint x="398" y="12" as="sourcePoint" />
            <mxPoint x="454" y="12" as="targetPoint" />
          </mxGeometry>
        </mxCell>
        <mxCell id="MsynWxrNxUOjoEWNQWUF-130" value="" style="endArrow=blockThin;html=1;rounded=0;fontFamily=Architects Daughter;fontSource=https://fonts.googleapis.com/css?family=Architects+Daughter;fontSize=16;startSize=14;endSize=14;sourcePerimeterSpacing=8;targetPerimeterSpacing=8;curved=1;endFill=1;" parent="1" edge="1">
          <mxGeometry width="50" height="50" relative="1" as="geometry">
            <mxPoint x="398" y="12" as="sourcePoint" />
            <mxPoint x="398" y="82" as="targetPoint" />
          </mxGeometry>
        </mxCell>
        <mxCell id="MsynWxrNxUOjoEWNQWUF-134" value="" style="endArrow=none;html=1;rounded=0;fontFamily=Architects Daughter;fontSource=https%3A%2F%2Ffonts.googleapis.com%2Fcss%3Ffamily%3DArchitects%2BDaughter;fontSize=16;startSize=14;endSize=14;sourcePerimeterSpacing=8;targetPerimeterSpacing=8;curved=1;" parent="1" edge="1">
          <mxGeometry width="50" height="50" relative="1" as="geometry">
            <mxPoint x="225" y="-2" as="sourcePoint" />
            <mxPoint x="460" y="-3" as="targetPoint" />
          </mxGeometry>
        </mxCell>
        <mxCell id="MsynWxrNxUOjoEWNQWUF-135" value="" style="endArrow=blockThin;html=1;rounded=0;fontFamily=Architects Daughter;fontSource=https://fonts.googleapis.com/css?family=Architects+Daughter;fontSize=16;startSize=14;endSize=14;sourcePerimeterSpacing=8;targetPerimeterSpacing=8;curved=1;endFill=1;" parent="1" edge="1">
          <mxGeometry width="50" height="50" relative="1" as="geometry">
            <mxPoint x="225" y="-2" as="sourcePoint" />
            <mxPoint x="225.42" y="299.5" as="targetPoint" />
          </mxGeometry>
        </mxCell>
        <mxCell id="MsynWxrNxUOjoEWNQWUF-136" value="&lt;font face=&quot;Lucida Console&quot;&gt;Mux&lt;/font&gt;" style="shape=trapezoid;perimeter=trapezoidPerimeter;whiteSpace=wrap;html=1;fixedSize=1;fontFamily=Architects Daughter;fontSource=https%3A%2F%2Ffonts.googleapis.com%2Fcss%3Ffamily%3DArchitects%2BDaughter;direction=south;" parent="1" vertex="1">
          <mxGeometry x="808" y="117.00999999999999" width="30" height="83" as="geometry" />
        </mxCell>
        <mxCell id="MsynWxrNxUOjoEWNQWUF-137" value="&lt;font face=&quot;Lucida Console&quot;&gt;Mux&lt;/font&gt;" style="shape=trapezoid;perimeter=trapezoidPerimeter;whiteSpace=wrap;html=1;fixedSize=1;fontFamily=Architects Daughter;fontSource=https%3A%2F%2Ffonts.googleapis.com%2Fcss%3Ffamily%3DArchitects%2BDaughter;direction=south;" parent="1" vertex="1">
          <mxGeometry x="808" y="248.13" width="30" height="83" as="geometry" />
        </mxCell>
        <mxCell id="MsynWxrNxUOjoEWNQWUF-138" value="" style="endArrow=none;html=1;rounded=0;fontFamily=Architects Daughter;fontSource=https%3A%2F%2Ffonts.googleapis.com%2Fcss%3Ffamily%3DArchitects%2BDaughter;fontSize=16;startSize=14;endSize=14;sourcePerimeterSpacing=8;targetPerimeterSpacing=8;curved=1;" parent="1" edge="1">
          <mxGeometry width="50" height="50" relative="1" as="geometry">
            <mxPoint x="950.5" y="347.63" as="sourcePoint" />
            <mxPoint x="950.5" y="300.63" as="targetPoint" />
          </mxGeometry>
        </mxCell>
        <mxCell id="MsynWxrNxUOjoEWNQWUF-141" value="" style="endArrow=none;html=1;rounded=0;fontFamily=Architects Daughter;fontSource=https%3A%2F%2Ffonts.googleapis.com%2Fcss%3Ffamily%3DArchitects%2BDaughter;fontSize=16;startSize=14;endSize=14;sourcePerimeterSpacing=8;targetPerimeterSpacing=8;curved=1;" parent="1" edge="1">
          <mxGeometry width="50" height="50" relative="1" as="geometry">
            <mxPoint x="950.5" y="406.63" as="sourcePoint" />
            <mxPoint x="950.5" y="359.63" as="targetPoint" />
          </mxGeometry>
        </mxCell>
        <mxCell id="MsynWxrNxUOjoEWNQWUF-143" value="" style="endArrow=none;html=1;rounded=0;fontFamily=Architects Daughter;fontSource=https%3A%2F%2Ffonts.googleapis.com%2Fcss%3Ffamily%3DArchitects%2BDaughter;fontSize=16;startSize=14;endSize=14;sourcePerimeterSpacing=8;targetPerimeterSpacing=8;curved=1;" parent="1" edge="1">
          <mxGeometry width="50" height="50" relative="1" as="geometry">
            <mxPoint x="1005.5" y="389.63" as="sourcePoint" />
            <mxPoint x="1005" y="324" as="targetPoint" />
          </mxGeometry>
        </mxCell>
        <mxCell id="MsynWxrNxUOjoEWNQWUF-144" value="" style="endArrow=none;html=1;rounded=0;fontFamily=Architects Daughter;fontSource=https%3A%2F%2Ffonts.googleapis.com%2Fcss%3Ffamily%3DArchitects%2BDaughter;fontSize=16;startSize=14;endSize=14;sourcePerimeterSpacing=8;targetPerimeterSpacing=8;curved=1;" parent="1" edge="1">
          <mxGeometry width="50" height="50" relative="1" as="geometry">
            <mxPoint x="950.5" y="347.63" as="sourcePoint" />
            <mxPoint x="958.5" y="352.63" as="targetPoint" />
          </mxGeometry>
        </mxCell>
        <mxCell id="MsynWxrNxUOjoEWNQWUF-145" value="" style="endArrow=none;html=1;rounded=0;fontFamily=Architects Daughter;fontSource=https%3A%2F%2Ffonts.googleapis.com%2Fcss%3Ffamily%3DArchitects%2BDaughter;fontSize=16;startSize=14;endSize=14;sourcePerimeterSpacing=8;targetPerimeterSpacing=8;curved=1;" parent="1" edge="1">
          <mxGeometry width="50" height="50" relative="1" as="geometry">
            <mxPoint x="950.5" y="359.63" as="sourcePoint" />
            <mxPoint x="958.5" y="352.63" as="targetPoint" />
          </mxGeometry>
        </mxCell>
        <mxCell id="MsynWxrNxUOjoEWNQWUF-146" value="" style="endArrow=none;html=1;rounded=0;fontFamily=Architects Daughter;fontSource=https%3A%2F%2Ffonts.googleapis.com%2Fcss%3Ffamily%3DArchitects%2BDaughter;fontSize=16;startSize=14;endSize=14;sourcePerimeterSpacing=8;targetPerimeterSpacing=8;curved=1;" parent="1" edge="1">
          <mxGeometry width="50" height="50" relative="1" as="geometry">
            <mxPoint x="1004.5" y="324.63" as="sourcePoint" />
            <mxPoint x="950.5" y="300.63" as="targetPoint" />
          </mxGeometry>
        </mxCell>
        <mxCell id="MsynWxrNxUOjoEWNQWUF-148" value="" style="endArrow=none;html=1;rounded=0;fontFamily=Architects Daughter;fontSource=https%3A%2F%2Ffonts.googleapis.com%2Fcss%3Ffamily%3DArchitects%2BDaughter;fontSize=16;startSize=14;endSize=14;sourcePerimeterSpacing=8;targetPerimeterSpacing=8;curved=1;" parent="1" edge="1">
          <mxGeometry width="50" height="50" relative="1" as="geometry">
            <mxPoint x="950.5" y="406.63" as="sourcePoint" />
            <mxPoint x="1005.5" y="388.63" as="targetPoint" />
          </mxGeometry>
        </mxCell>
        <mxCell id="MsynWxrNxUOjoEWNQWUF-149" value="&lt;font style=&quot;font-size: 16px;&quot; face=&quot;Lucida Console&quot;&gt;ALU&lt;/font&gt;" style="text;strokeColor=none;fillColor=none;html=1;align=center;verticalAlign=middle;whiteSpace=wrap;rounded=0;fontSize=18;fontFamily=Architects Daughter;fontSource=https%3A%2F%2Ffonts.googleapis.com%2Fcss%3Ffamily%3DArchitects%2BDaughter;" parent="1" vertex="1">
          <mxGeometry x="949.5" y="336.13" width="60" height="30" as="geometry" />
        </mxCell>
        <mxCell id="MsynWxrNxUOjoEWNQWUF-150" value="" style="endArrow=none;html=1;rounded=0;fontFamily=Architects Daughter;fontSource=https%3A%2F%2Ffonts.googleapis.com%2Fcss%3Ffamily%3DArchitects%2BDaughter;fontSize=16;startSize=14;endSize=14;sourcePerimeterSpacing=8;targetPerimeterSpacing=8;curved=1;" parent="1" edge="1">
          <mxGeometry width="50" height="50" relative="1" as="geometry">
            <mxPoint x="950.5" y="73.63" as="sourcePoint" />
            <mxPoint x="950.5" y="26.629999999999995" as="targetPoint" />
          </mxGeometry>
        </mxCell>
        <mxCell id="MsynWxrNxUOjoEWNQWUF-151" value="" style="endArrow=none;html=1;rounded=0;fontFamily=Architects Daughter;fontSource=https%3A%2F%2Ffonts.googleapis.com%2Fcss%3Ffamily%3DArchitects%2BDaughter;fontSize=16;startSize=14;endSize=14;sourcePerimeterSpacing=8;targetPerimeterSpacing=8;curved=1;" parent="1" edge="1">
          <mxGeometry width="50" height="50" relative="1" as="geometry">
            <mxPoint x="950.5" y="132.63" as="sourcePoint" />
            <mxPoint x="950.5" y="85.63" as="targetPoint" />
          </mxGeometry>
        </mxCell>
        <mxCell id="MsynWxrNxUOjoEWNQWUF-152" value="" style="endArrow=none;html=1;rounded=0;fontFamily=Architects Daughter;fontSource=https%3A%2F%2Ffonts.googleapis.com%2Fcss%3Ffamily%3DArchitects%2BDaughter;fontSize=16;startSize=14;endSize=14;sourcePerimeterSpacing=8;targetPerimeterSpacing=8;curved=1;" parent="1" edge="1">
          <mxGeometry width="50" height="50" relative="1" as="geometry">
            <mxPoint x="1005.5" y="115.63" as="sourcePoint" />
            <mxPoint x="1005" y="50" as="targetPoint" />
          </mxGeometry>
        </mxCell>
        <mxCell id="MsynWxrNxUOjoEWNQWUF-153" value="" style="endArrow=none;html=1;rounded=0;fontFamily=Architects Daughter;fontSource=https%3A%2F%2Ffonts.googleapis.com%2Fcss%3Ffamily%3DArchitects%2BDaughter;fontSize=16;startSize=14;endSize=14;sourcePerimeterSpacing=8;targetPerimeterSpacing=8;curved=1;" parent="1" edge="1">
          <mxGeometry width="50" height="50" relative="1" as="geometry">
            <mxPoint x="950.5" y="73.63" as="sourcePoint" />
            <mxPoint x="958.5" y="78.63" as="targetPoint" />
          </mxGeometry>
        </mxCell>
        <mxCell id="MsynWxrNxUOjoEWNQWUF-154" value="" style="endArrow=none;html=1;rounded=0;fontFamily=Architects Daughter;fontSource=https%3A%2F%2Ffonts.googleapis.com%2Fcss%3Ffamily%3DArchitects%2BDaughter;fontSize=16;startSize=14;endSize=14;sourcePerimeterSpacing=8;targetPerimeterSpacing=8;curved=1;" parent="1" edge="1">
          <mxGeometry width="50" height="50" relative="1" as="geometry">
            <mxPoint x="950.5" y="85.63" as="sourcePoint" />
            <mxPoint x="958.5" y="78.63" as="targetPoint" />
          </mxGeometry>
        </mxCell>
        <mxCell id="MsynWxrNxUOjoEWNQWUF-155" value="" style="endArrow=none;html=1;rounded=0;fontFamily=Architects Daughter;fontSource=https%3A%2F%2Ffonts.googleapis.com%2Fcss%3Ffamily%3DArchitects%2BDaughter;fontSize=16;startSize=14;endSize=14;sourcePerimeterSpacing=8;targetPerimeterSpacing=8;curved=1;" parent="1" edge="1">
          <mxGeometry width="50" height="50" relative="1" as="geometry">
            <mxPoint x="1004.5" y="50.629999999999995" as="sourcePoint" />
            <mxPoint x="950.5" y="26.629999999999995" as="targetPoint" />
          </mxGeometry>
        </mxCell>
        <mxCell id="MsynWxrNxUOjoEWNQWUF-156" value="" style="endArrow=none;html=1;rounded=0;fontFamily=Architects Daughter;fontSource=https%3A%2F%2Ffonts.googleapis.com%2Fcss%3Ffamily%3DArchitects%2BDaughter;fontSize=16;startSize=14;endSize=14;sourcePerimeterSpacing=8;targetPerimeterSpacing=8;curved=1;" parent="1" edge="1">
          <mxGeometry width="50" height="50" relative="1" as="geometry">
            <mxPoint x="950.5" y="132.63" as="sourcePoint" />
            <mxPoint x="1005.5" y="114.63" as="targetPoint" />
          </mxGeometry>
        </mxCell>
        <mxCell id="MsynWxrNxUOjoEWNQWUF-157" value="&lt;font style=&quot;font-size: 16px;&quot; face=&quot;Lucida Console&quot;&gt;MALU&lt;/font&gt;" style="text;strokeColor=none;fillColor=none;html=1;align=center;verticalAlign=middle;whiteSpace=wrap;rounded=0;fontSize=18;fontFamily=Architects Daughter;fontSource=https%3A%2F%2Ffonts.googleapis.com%2Fcss%3Ffamily%3DArchitects%2BDaughter;" parent="1" vertex="1">
          <mxGeometry x="949.5" y="62.129999999999995" width="60" height="30" as="geometry" />
        </mxCell>
        <mxCell id="MsynWxrNxUOjoEWNQWUF-158" value="" style="endArrow=none;html=1;rounded=0;fontFamily=Architects Daughter;fontSource=https%3A%2F%2Ffonts.googleapis.com%2Fcss%3Ffamily%3DArchitects%2BDaughter;fontSize=16;startSize=14;endSize=14;sourcePerimeterSpacing=8;targetPerimeterSpacing=8;curved=1;" parent="1" edge="1">
          <mxGeometry width="50" height="50" relative="1" as="geometry">
            <mxPoint x="950.5" y="212.38" as="sourcePoint" />
            <mxPoint x="950.5" y="165.38" as="targetPoint" />
          </mxGeometry>
        </mxCell>
        <mxCell id="MsynWxrNxUOjoEWNQWUF-159" value="" style="endArrow=none;html=1;rounded=0;fontFamily=Architects Daughter;fontSource=https%3A%2F%2Ffonts.googleapis.com%2Fcss%3Ffamily%3DArchitects%2BDaughter;fontSize=16;startSize=14;endSize=14;sourcePerimeterSpacing=8;targetPerimeterSpacing=8;curved=1;" parent="1" edge="1">
          <mxGeometry width="50" height="50" relative="1" as="geometry">
            <mxPoint x="950.5" y="271.38" as="sourcePoint" />
            <mxPoint x="950.5" y="224.38" as="targetPoint" />
          </mxGeometry>
        </mxCell>
        <mxCell id="MsynWxrNxUOjoEWNQWUF-160" value="" style="endArrow=none;html=1;rounded=0;fontFamily=Architects Daughter;fontSource=https%3A%2F%2Ffonts.googleapis.com%2Fcss%3Ffamily%3DArchitects%2BDaughter;fontSize=16;startSize=14;endSize=14;sourcePerimeterSpacing=8;targetPerimeterSpacing=8;curved=1;" parent="1" edge="1">
          <mxGeometry width="50" height="50" relative="1" as="geometry">
            <mxPoint x="1005.5" y="254.38" as="sourcePoint" />
            <mxPoint x="1005" y="189" as="targetPoint" />
          </mxGeometry>
        </mxCell>
        <mxCell id="MsynWxrNxUOjoEWNQWUF-161" value="" style="endArrow=none;html=1;rounded=0;fontFamily=Architects Daughter;fontSource=https%3A%2F%2Ffonts.googleapis.com%2Fcss%3Ffamily%3DArchitects%2BDaughter;fontSize=16;startSize=14;endSize=14;sourcePerimeterSpacing=8;targetPerimeterSpacing=8;curved=1;" parent="1" edge="1">
          <mxGeometry width="50" height="50" relative="1" as="geometry">
            <mxPoint x="950.5" y="212.38" as="sourcePoint" />
            <mxPoint x="958.5" y="217.38" as="targetPoint" />
          </mxGeometry>
        </mxCell>
        <mxCell id="MsynWxrNxUOjoEWNQWUF-162" value="" style="endArrow=none;html=1;rounded=0;fontFamily=Architects Daughter;fontSource=https%3A%2F%2Ffonts.googleapis.com%2Fcss%3Ffamily%3DArchitects%2BDaughter;fontSize=16;startSize=14;endSize=14;sourcePerimeterSpacing=8;targetPerimeterSpacing=8;curved=1;" parent="1" edge="1">
          <mxGeometry width="50" height="50" relative="1" as="geometry">
            <mxPoint x="950.5" y="224.38" as="sourcePoint" />
            <mxPoint x="958.5" y="217.38" as="targetPoint" />
          </mxGeometry>
        </mxCell>
        <mxCell id="MsynWxrNxUOjoEWNQWUF-163" value="" style="endArrow=none;html=1;rounded=0;fontFamily=Architects Daughter;fontSource=https%3A%2F%2Ffonts.googleapis.com%2Fcss%3Ffamily%3DArchitects%2BDaughter;fontSize=16;startSize=14;endSize=14;sourcePerimeterSpacing=8;targetPerimeterSpacing=8;curved=1;" parent="1" edge="1">
          <mxGeometry width="50" height="50" relative="1" as="geometry">
            <mxPoint x="1004.5" y="189.38" as="sourcePoint" />
            <mxPoint x="950.5" y="165.38" as="targetPoint" />
          </mxGeometry>
        </mxCell>
        <mxCell id="MsynWxrNxUOjoEWNQWUF-164" value="" style="endArrow=none;html=1;rounded=0;fontFamily=Architects Daughter;fontSource=https%3A%2F%2Ffonts.googleapis.com%2Fcss%3Ffamily%3DArchitects%2BDaughter;fontSize=16;startSize=14;endSize=14;sourcePerimeterSpacing=8;targetPerimeterSpacing=8;curved=1;" parent="1" edge="1">
          <mxGeometry width="50" height="50" relative="1" as="geometry">
            <mxPoint x="950.5" y="271.38" as="sourcePoint" />
            <mxPoint x="1005.5" y="253.38" as="targetPoint" />
          </mxGeometry>
        </mxCell>
        <mxCell id="MsynWxrNxUOjoEWNQWUF-165" value="&lt;font style=&quot;font-size: 16px;&quot; face=&quot;Lucida Console&quot;&gt;DALU&lt;/font&gt;" style="text;strokeColor=none;fillColor=none;html=1;align=center;verticalAlign=middle;whiteSpace=wrap;rounded=0;fontSize=18;fontFamily=Architects Daughter;fontSource=https%3A%2F%2Ffonts.googleapis.com%2Fcss%3Ffamily%3DArchitects%2BDaughter;" parent="1" vertex="1">
          <mxGeometry x="949.5" y="200.88" width="60" height="30" as="geometry" />
        </mxCell>
        <mxCell id="MsynWxrNxUOjoEWNQWUF-166" value="&lt;font face=&quot;Lucida Console&quot;&gt;&lt;span style=&quot;font-size: 14px;&quot;&gt;ALU&lt;/span&gt;&lt;/font&gt;&lt;div&gt;&lt;font face=&quot;Lucida Console&quot;&gt;&lt;span style=&quot;font-size: 14px;&quot;&gt;Control&lt;/span&gt;&lt;/font&gt;&lt;/div&gt;" style="ellipse;whiteSpace=wrap;html=1;fontFamily=Architects Daughter;fontSource=https%3A%2F%2Ffonts.googleapis.com%2Fcss%3Ffamily%3DArchitects%2BDaughter;direction=south;" parent="1" vertex="1">
          <mxGeometry x="946.5" y="430" width="69" height="88" as="geometry" />
        </mxCell>
        <mxCell id="MsynWxrNxUOjoEWNQWUF-167" value="&lt;font face=&quot;Lucida Console&quot;&gt;Forwarding&lt;/font&gt;&lt;div&gt;&lt;font face=&quot;Lucida Console&quot;&gt;unit&lt;/font&gt;&lt;/div&gt;" style="ellipse;whiteSpace=wrap;html=1;fontFamily=Architects Daughter;fontSource=https%3A%2F%2Ffonts.googleapis.com%2Fcss%3Ffamily%3DArchitects%2BDaughter;direction=south;" parent="1" vertex="1">
          <mxGeometry x="845" y="605" width="117" height="75" as="geometry" />
        </mxCell>
        <mxCell id="MsynWxrNxUOjoEWNQWUF-172" value="" style="endArrow=none;html=1;rounded=0;fontFamily=Architects Daughter;fontSource=https%3A%2F%2Ffonts.googleapis.com%2Fcss%3Ffamily%3DArchitects%2BDaughter;fontSize=16;startSize=14;endSize=14;sourcePerimeterSpacing=8;targetPerimeterSpacing=8;curved=1;exitX=0.066;exitY=0.786;exitDx=0;exitDy=0;exitPerimeter=0;" parent="1" source="MsynWxrNxUOjoEWNQWUF-167" edge="1">
          <mxGeometry width="50" height="50" relative="1" as="geometry">
            <mxPoint x="869.9720000000002" y="562.559" as="sourcePoint" />
            <mxPoint x="870" y="357" as="targetPoint" />
          </mxGeometry>
        </mxCell>
        <mxCell id="MsynWxrNxUOjoEWNQWUF-173" value="" style="endArrow=none;html=1;rounded=0;fontFamily=Architects Daughter;fontSource=https%3A%2F%2Ffonts.googleapis.com%2Fcss%3Ffamily%3DArchitects%2BDaughter;fontSize=16;startSize=14;endSize=14;sourcePerimeterSpacing=8;targetPerimeterSpacing=8;curved=1;" parent="1" edge="1">
          <mxGeometry width="50" height="50" relative="1" as="geometry">
            <mxPoint x="826" y="357" as="sourcePoint" />
            <mxPoint x="870" y="357" as="targetPoint" />
          </mxGeometry>
        </mxCell>
        <mxCell id="MsynWxrNxUOjoEWNQWUF-174" value="" style="endArrow=blockThin;html=1;rounded=0;fontFamily=Architects Daughter;fontSource=https://fonts.googleapis.com/css?family=Architects+Daughter;fontSize=16;startSize=14;endSize=14;sourcePerimeterSpacing=8;targetPerimeterSpacing=8;curved=1;endFill=1;" parent="1" edge="1">
          <mxGeometry width="50" height="50" relative="1" as="geometry">
            <mxPoint x="826" y="357" as="sourcePoint" />
            <mxPoint x="826" y="320.46" as="targetPoint" />
          </mxGeometry>
        </mxCell>
        <mxCell id="MsynWxrNxUOjoEWNQWUF-175" value="" style="endArrow=blockThin;html=1;rounded=0;fontFamily=Architects Daughter;fontSource=https://fonts.googleapis.com/css?family=Architects+Daughter;fontSize=16;startSize=14;endSize=14;sourcePerimeterSpacing=8;targetPerimeterSpacing=8;curved=1;endFill=1;exitX=0;exitY=0.5;exitDx=0;exitDy=0;" parent="1" edge="1" source="MsynWxrNxUOjoEWNQWUF-166">
          <mxGeometry width="50" height="50" relative="1" as="geometry">
            <mxPoint x="980.5" y="435.04" as="sourcePoint" />
            <mxPoint x="980.5" y="398.5" as="targetPoint" />
          </mxGeometry>
        </mxCell>
        <mxCell id="MsynWxrNxUOjoEWNQWUF-176" value="" style="endArrow=none;html=1;rounded=0;fontFamily=Architects Daughter;fontSource=https%3A%2F%2Ffonts.googleapis.com%2Fcss%3Ffamily%3DArchitects%2BDaughter;fontSize=16;startSize=14;endSize=14;sourcePerimeterSpacing=8;targetPerimeterSpacing=8;curved=1;" parent="1" edge="1">
          <mxGeometry width="50" height="50" relative="1" as="geometry">
            <mxPoint x="892" y="601" as="sourcePoint" />
            <mxPoint x="892" y="227" as="targetPoint" />
          </mxGeometry>
        </mxCell>
        <mxCell id="MsynWxrNxUOjoEWNQWUF-177" value="" style="endArrow=blockThin;html=1;rounded=0;fontFamily=Architects Daughter;fontSource=https://fonts.googleapis.com/css?family=Architects+Daughter;fontSize=16;startSize=14;endSize=14;sourcePerimeterSpacing=8;targetPerimeterSpacing=8;curved=1;endFill=1;" parent="1" edge="1">
          <mxGeometry width="50" height="50" relative="1" as="geometry">
            <mxPoint x="823.91" y="227.14999999999998" as="sourcePoint" />
            <mxPoint x="823.91" y="190.60999999999996" as="targetPoint" />
          </mxGeometry>
        </mxCell>
        <mxCell id="MsynWxrNxUOjoEWNQWUF-178" value="" style="endArrow=none;html=1;rounded=0;fontFamily=Architects Daughter;fontSource=https%3A%2F%2Ffonts.googleapis.com%2Fcss%3Ffamily%3DArchitects%2BDaughter;fontSize=16;startSize=14;endSize=14;sourcePerimeterSpacing=8;targetPerimeterSpacing=8;curved=1;" parent="1" edge="1">
          <mxGeometry width="50" height="50" relative="1" as="geometry">
            <mxPoint x="892" y="227" as="sourcePoint" />
            <mxPoint x="824" y="227" as="targetPoint" />
          </mxGeometry>
        </mxCell>
        <mxCell id="MsynWxrNxUOjoEWNQWUF-179" value="" style="endArrow=blockThin;html=1;rounded=0;fontFamily=Architects Daughter;fontSource=https://fonts.googleapis.com/css?family=Architects+Daughter;fontSize=16;startSize=14;endSize=14;sourcePerimeterSpacing=8;targetPerimeterSpacing=8;curved=1;exitX=0.5;exitY=0;exitDx=0;exitDy=0;endFill=1;" parent="1" edge="1">
          <mxGeometry width="50" height="50" relative="1" as="geometry">
            <mxPoint x="737" y="135" as="sourcePoint" />
            <mxPoint x="807" y="135" as="targetPoint" />
          </mxGeometry>
        </mxCell>
        <mxCell id="MsynWxrNxUOjoEWNQWUF-182" value="" style="endArrow=none;html=1;rounded=0;fontFamily=Architects Daughter;fontSource=https%3A%2F%2Ffonts.googleapis.com%2Fcss%3Ffamily%3DArchitects%2BDaughter;fontSize=16;startSize=14;endSize=14;sourcePerimeterSpacing=8;targetPerimeterSpacing=8;curved=1;exitX=0.5;exitY=0;exitDx=0;exitDy=0;" parent="1" edge="1">
          <mxGeometry width="50" height="50" relative="1" as="geometry">
            <mxPoint x="838.0000000000002" y="289.8800000000001" as="sourcePoint" />
            <mxPoint x="914" y="289" as="targetPoint" />
          </mxGeometry>
        </mxCell>
        <mxCell id="MsynWxrNxUOjoEWNQWUF-184" value="" style="endArrow=none;html=1;rounded=0;fontFamily=Architects Daughter;fontSource=https%3A%2F%2Ffonts.googleapis.com%2Fcss%3Ffamily%3DArchitects%2BDaughter;fontSize=16;startSize=14;endSize=14;sourcePerimeterSpacing=8;targetPerimeterSpacing=8;curved=1;" parent="1" edge="1">
          <mxGeometry width="50" height="50" relative="1" as="geometry">
            <mxPoint x="902" y="323" as="sourcePoint" />
            <mxPoint x="902" y="48" as="targetPoint" />
          </mxGeometry>
        </mxCell>
        <mxCell id="88pjpDgZNzRrYMClc0rx-1" value="" style="endArrow=blockThin;html=1;rounded=0;fontFamily=Architects Daughter;fontSource=https://fonts.googleapis.com/css?family=Architects+Daughter;fontSize=16;startSize=14;endSize=14;sourcePerimeterSpacing=8;targetPerimeterSpacing=8;curved=1;endFill=1;" parent="1" edge="1">
          <mxGeometry width="50" height="50" relative="1" as="geometry">
            <mxPoint x="902" y="48" as="sourcePoint" />
            <mxPoint x="949" y="48" as="targetPoint" />
          </mxGeometry>
        </mxCell>
        <mxCell id="88pjpDgZNzRrYMClc0rx-2" value="" style="endArrow=blockThin;html=1;rounded=0;fontFamily=Architects Daughter;fontSource=https://fonts.googleapis.com/css?family=Architects+Daughter;fontSize=16;startSize=14;endSize=14;sourcePerimeterSpacing=8;targetPerimeterSpacing=8;curved=1;endFill=1;" parent="1" edge="1">
          <mxGeometry width="50" height="50" relative="1" as="geometry">
            <mxPoint x="902" y="183" as="sourcePoint" />
            <mxPoint x="949.5" y="183" as="targetPoint" />
          </mxGeometry>
        </mxCell>
        <mxCell id="88pjpDgZNzRrYMClc0rx-3" value="" style="endArrow=blockThin;html=1;rounded=0;fontFamily=Architects Daughter;fontSource=https://fonts.googleapis.com/css?family=Architects+Daughter;fontSize=16;startSize=14;endSize=14;sourcePerimeterSpacing=8;targetPerimeterSpacing=8;curved=1;endFill=1;" parent="1" edge="1">
          <mxGeometry width="50" height="50" relative="1" as="geometry">
            <mxPoint x="902" y="323" as="sourcePoint" />
            <mxPoint x="949.5" y="322.89" as="targetPoint" />
          </mxGeometry>
        </mxCell>
        <mxCell id="88pjpDgZNzRrYMClc0rx-4" value="" style="endArrow=none;html=1;rounded=0;fontFamily=Architects Daughter;fontSource=https%3A%2F%2Ffonts.googleapis.com%2Fcss%3Ffamily%3DArchitects%2BDaughter;fontSize=16;startSize=14;endSize=14;sourcePerimeterSpacing=8;targetPerimeterSpacing=8;curved=1;" parent="1" edge="1">
          <mxGeometry width="50" height="50" relative="1" as="geometry">
            <mxPoint x="914" y="382.5" as="sourcePoint" />
            <mxPoint x="914" y="107.5" as="targetPoint" />
          </mxGeometry>
        </mxCell>
        <mxCell id="88pjpDgZNzRrYMClc0rx-5" value="" style="endArrow=blockThin;html=1;rounded=0;fontFamily=Architects Daughter;fontSource=https://fonts.googleapis.com/css?family=Architects+Daughter;fontSize=16;startSize=14;endSize=14;sourcePerimeterSpacing=8;targetPerimeterSpacing=8;curved=1;endFill=1;" parent="1" edge="1">
          <mxGeometry width="50" height="50" relative="1" as="geometry">
            <mxPoint x="914" y="108" as="sourcePoint" />
            <mxPoint x="950" y="108" as="targetPoint" />
          </mxGeometry>
        </mxCell>
        <mxCell id="88pjpDgZNzRrYMClc0rx-6" value="" style="endArrow=blockThin;html=1;rounded=0;fontFamily=Architects Daughter;fontSource=https://fonts.googleapis.com/css?family=Architects+Daughter;fontSize=16;startSize=14;endSize=14;sourcePerimeterSpacing=8;targetPerimeterSpacing=8;curved=1;endFill=1;" parent="1" edge="1">
          <mxGeometry width="50" height="50" relative="1" as="geometry">
            <mxPoint x="913.5" y="248.13" as="sourcePoint" />
            <mxPoint x="949.5" y="248.13" as="targetPoint" />
          </mxGeometry>
        </mxCell>
        <mxCell id="88pjpDgZNzRrYMClc0rx-7" value="" style="endArrow=blockThin;html=1;rounded=0;fontFamily=Architects Daughter;fontSource=https://fonts.googleapis.com/css?family=Architects+Daughter;fontSize=16;startSize=14;endSize=14;sourcePerimeterSpacing=8;targetPerimeterSpacing=8;curved=1;endFill=1;" parent="1" edge="1">
          <mxGeometry width="50" height="50" relative="1" as="geometry">
            <mxPoint x="913.5" y="383" as="sourcePoint" />
            <mxPoint x="949.5" y="383" as="targetPoint" />
          </mxGeometry>
        </mxCell>
        <mxCell id="88pjpDgZNzRrYMClc0rx-9" value="&lt;font style=&quot;font-size: 14px;&quot; face=&quot;Lucida Console&quot;&gt;EX/MEM&lt;/font&gt;" style="text;html=1;align=center;verticalAlign=middle;whiteSpace=wrap;rounded=0;fontSize=20;fontFamily=Architects Daughter;fontSource=https%3A%2F%2Ffonts.googleapis.com%2Fcss%3Ffamily%3DArchitects%2BDaughter;" parent="1" vertex="1">
          <mxGeometry x="1030.5" y="-111" width="60" height="30" as="geometry" />
        </mxCell>
        <mxCell id="88pjpDgZNzRrYMClc0rx-10" value="" style="endArrow=blockThin;html=1;rounded=0;fontFamily=Architects Daughter;fontSource=https://fonts.googleapis.com/css?family=Architects+Daughter;fontSize=16;startSize=14;endSize=14;sourcePerimeterSpacing=8;targetPerimeterSpacing=8;curved=1;endFill=1;" parent="1" edge="1">
          <mxGeometry width="50" height="50" relative="1" as="geometry">
            <mxPoint x="1006" y="350.93" as="sourcePoint" />
            <mxPoint x="1042" y="351" as="targetPoint" />
          </mxGeometry>
        </mxCell>
        <mxCell id="88pjpDgZNzRrYMClc0rx-11" value="" style="endArrow=blockThin;html=1;rounded=0;fontFamily=Architects Daughter;fontSource=https://fonts.googleapis.com/css?family=Architects+Daughter;fontSize=16;startSize=14;endSize=14;sourcePerimeterSpacing=8;targetPerimeterSpacing=8;curved=1;endFill=1;entryX=0.316;entryY=1.06;entryDx=0;entryDy=0;entryPerimeter=0;" parent="1" edge="1">
          <mxGeometry width="50" height="50" relative="1" as="geometry">
            <mxPoint x="1004.92" y="215.64000000000001" as="sourcePoint" />
            <mxPoint x="1043.1399999999999" y="215.17599999999993" as="targetPoint" />
          </mxGeometry>
        </mxCell>
        <mxCell id="88pjpDgZNzRrYMClc0rx-12" value="" style="endArrow=blockThin;html=1;rounded=0;fontFamily=Architects Daughter;fontSource=https://fonts.googleapis.com/css?family=Architects+Daughter;fontSize=16;startSize=14;endSize=14;sourcePerimeterSpacing=8;targetPerimeterSpacing=8;curved=1;endFill=1;" parent="1" edge="1">
          <mxGeometry width="50" height="50" relative="1" as="geometry">
            <mxPoint x="1005" y="76.89000000000001" as="sourcePoint" />
            <mxPoint x="1040" y="77" as="targetPoint" />
          </mxGeometry>
        </mxCell>
        <mxCell id="88pjpDgZNzRrYMClc0rx-13" value="&lt;font face=&quot;Lucida Console&quot;&gt;&lt;span style=&quot;font-size: 14px;&quot;&gt;Data&lt;/span&gt;&lt;/font&gt;&lt;div&gt;&lt;font face=&quot;Lucida Console&quot;&gt;&lt;span style=&quot;font-size: 14px;&quot;&gt;Memory&lt;/span&gt;&lt;/font&gt;&lt;/div&gt;" style="rounded=1;whiteSpace=wrap;html=1;fontFamily=Architects Daughter;fontSource=https%3A%2F%2Ffonts.googleapis.com%2Fcss%3Ffamily%3DArchitects%2BDaughter;" parent="1" vertex="1">
          <mxGeometry x="1142" y="247" width="104" height="179.25" as="geometry" />
        </mxCell>
        <mxCell id="88pjpDgZNzRrYMClc0rx-14" value="" style="endArrow=blockThin;html=1;rounded=0;fontFamily=Architects Daughter;fontSource=https://fonts.googleapis.com/css?family=Architects+Daughter;fontSize=16;startSize=14;endSize=14;sourcePerimeterSpacing=8;targetPerimeterSpacing=8;curved=1;endFill=1;entryX=0.548;entryY=0.965;entryDx=0;entryDy=0;entryPerimeter=0;" parent="1" edge="1">
          <mxGeometry width="50" height="50" relative="1" as="geometry">
            <mxPoint x="1077.09" y="280.5" as="sourcePoint" />
            <mxPoint x="1142" y="280.57" as="targetPoint" />
          </mxGeometry>
        </mxCell>
        <mxCell id="88pjpDgZNzRrYMClc0rx-15" value="" style="endArrow=blockThin;html=1;rounded=0;fontFamily=Architects Daughter;fontSource=https://fonts.googleapis.com/css?family=Architects+Daughter;fontSize=16;startSize=14;endSize=14;sourcePerimeterSpacing=8;targetPerimeterSpacing=8;curved=1;endFill=1;entryX=0.548;entryY=0.965;entryDx=0;entryDy=0;entryPerimeter=0;" parent="1" edge="1">
          <mxGeometry width="50" height="50" relative="1" as="geometry">
            <mxPoint x="1077.09" y="390" as="sourcePoint" />
            <mxPoint x="1142" y="390.07" as="targetPoint" />
          </mxGeometry>
        </mxCell>
        <mxCell id="88pjpDgZNzRrYMClc0rx-16" value="" style="endArrow=blockThin;html=1;rounded=0;fontFamily=Architects Daughter;fontSource=https://fonts.googleapis.com/css?family=Architects+Daughter;fontSize=16;startSize=14;endSize=14;sourcePerimeterSpacing=8;targetPerimeterSpacing=8;curved=1;endFill=1;" parent="1" edge="1">
          <mxGeometry width="50" height="50" relative="1" as="geometry">
            <mxPoint x="1246" y="344" as="sourcePoint" />
            <mxPoint x="1292" y="344" as="targetPoint" />
          </mxGeometry>
        </mxCell>
        <mxCell id="88pjpDgZNzRrYMClc0rx-17" value="" style="endArrow=none;html=1;rounded=0;fontFamily=Architects Daughter;fontSource=https%3A%2F%2Ffonts.googleapis.com%2Fcss%3Ffamily%3DArchitects%2BDaughter;fontSize=16;startSize=14;endSize=14;sourcePerimeterSpacing=8;targetPerimeterSpacing=8;curved=1;" parent="1" edge="1">
          <mxGeometry width="50" height="50" relative="1" as="geometry">
            <mxPoint x="1116" y="684" as="sourcePoint" />
            <mxPoint x="1116" y="281" as="targetPoint" />
          </mxGeometry>
        </mxCell>
        <mxCell id="88pjpDgZNzRrYMClc0rx-19" value="&lt;font style=&quot;font-size: 14px;&quot; face=&quot;Lucida Console&quot;&gt;MEM/WB&lt;/font&gt;" style="text;html=1;align=center;verticalAlign=middle;whiteSpace=wrap;rounded=0;fontSize=20;fontFamily=Architects Daughter;fontSource=https%3A%2F%2Ffonts.googleapis.com%2Fcss%3Ffamily%3DArchitects%2BDaughter;" parent="1" vertex="1">
          <mxGeometry x="1277.5" y="-105" width="60" height="30" as="geometry" />
        </mxCell>
        <mxCell id="88pjpDgZNzRrYMClc0rx-20" value="" style="endArrow=blockThin;html=1;rounded=0;fontFamily=Architects Daughter;fontSource=https://fonts.googleapis.com/css?family=Architects+Daughter;fontSize=16;startSize=14;endSize=14;sourcePerimeterSpacing=8;targetPerimeterSpacing=8;curved=1;endFill=1;" parent="1" edge="1">
          <mxGeometry width="50" height="50" relative="1" as="geometry">
            <mxPoint x="1116" y="447" as="sourcePoint" />
            <mxPoint x="1291" y="447" as="targetPoint" />
          </mxGeometry>
        </mxCell>
        <mxCell id="88pjpDgZNzRrYMClc0rx-21" value="&lt;font style=&quot;font-size: 10px;&quot; face=&quot;Lucida Console&quot;&gt;addr&lt;/font&gt;" style="text;html=1;align=center;verticalAlign=middle;whiteSpace=wrap;rounded=0;fontSize=20;fontFamily=Architects Daughter;fontSource=https%3A%2F%2Ffonts.googleapis.com%2Fcss%3Ffamily%3DArchitects%2BDaughter;" parent="1" vertex="1">
          <mxGeometry x="1142" y="266.5" width="41" height="19.5" as="geometry" />
        </mxCell>
        <mxCell id="88pjpDgZNzRrYMClc0rx-22" value="&lt;font style=&quot;font-size: 10px;&quot; face=&quot;Lucida Console&quot;&gt;WD&lt;/font&gt;" style="text;html=1;align=center;verticalAlign=middle;whiteSpace=wrap;rounded=0;fontSize=20;fontFamily=Architects Daughter;fontSource=https%3A%2F%2Ffonts.googleapis.com%2Fcss%3Ffamily%3DArchitects%2BDaughter;" parent="1" vertex="1">
          <mxGeometry x="1142" y="379" width="41" height="19.5" as="geometry" />
        </mxCell>
        <mxCell id="88pjpDgZNzRrYMClc0rx-23" value="&lt;font style=&quot;font-size: 10px;&quot; face=&quot;Lucida Console&quot;&gt;RD&lt;/font&gt;" style="text;html=1;align=center;verticalAlign=middle;whiteSpace=wrap;rounded=0;fontSize=20;fontFamily=Architects Daughter;fontSource=https%3A%2F%2Ffonts.googleapis.com%2Fcss%3Ffamily%3DArchitects%2BDaughter;" parent="1" vertex="1">
          <mxGeometry x="1215" y="331.13" width="41" height="19.5" as="geometry" />
        </mxCell>
        <mxCell id="88pjpDgZNzRrYMClc0rx-24" value="" style="endArrow=blockThin;html=1;rounded=0;fontFamily=Architects Daughter;fontSource=https://fonts.googleapis.com/css?family=Architects+Daughter;fontSize=16;startSize=14;endSize=14;sourcePerimeterSpacing=8;targetPerimeterSpacing=8;curved=1;exitX=0.5;exitY=0;exitDx=0;exitDy=0;endFill=1;" parent="1" edge="1">
          <mxGeometry width="50" height="50" relative="1" as="geometry">
            <mxPoint x="737" y="541.08" as="sourcePoint" />
            <mxPoint x="1040" y="540" as="targetPoint" />
          </mxGeometry>
        </mxCell>
        <mxCell id="88pjpDgZNzRrYMClc0rx-25" value="" style="endArrow=blockThin;html=1;rounded=0;fontFamily=Architects Daughter;fontSource=https://fonts.googleapis.com/css?family=Architects+Daughter;fontSize=16;startSize=14;endSize=14;sourcePerimeterSpacing=8;targetPerimeterSpacing=8;curved=1;exitX=0.5;exitY=0;exitDx=0;exitDy=0;endFill=1;" parent="1" edge="1">
          <mxGeometry width="50" height="50" relative="1" as="geometry">
            <mxPoint x="1076" y="540.08" as="sourcePoint" />
            <mxPoint x="1291" y="539" as="targetPoint" />
          </mxGeometry>
        </mxCell>
        <mxCell id="88pjpDgZNzRrYMClc0rx-26" value="" style="endArrow=none;html=1;rounded=0;fontFamily=Architects Daughter;fontSource=https%3A%2F%2Ffonts.googleapis.com%2Fcss%3Ffamily%3DArchitects%2BDaughter;fontSize=16;startSize=14;endSize=14;sourcePerimeterSpacing=8;targetPerimeterSpacing=8;curved=1;" parent="1" edge="1">
          <mxGeometry width="50" height="50" relative="1" as="geometry">
            <mxPoint x="1324" y="539" as="sourcePoint" />
            <mxPoint x="1368" y="539" as="targetPoint" />
          </mxGeometry>
        </mxCell>
        <mxCell id="88pjpDgZNzRrYMClc0rx-27" value="" style="endArrow=none;html=1;rounded=0;fontFamily=Architects Daughter;fontSource=https%3A%2F%2Ffonts.googleapis.com%2Fcss%3Ffamily%3DArchitects%2BDaughter;fontSize=16;startSize=14;endSize=14;sourcePerimeterSpacing=8;targetPerimeterSpacing=8;curved=1;" parent="1" edge="1">
          <mxGeometry width="50" height="50" relative="1" as="geometry">
            <mxPoint x="1369" y="657" as="sourcePoint" />
            <mxPoint x="1368" y="539" as="targetPoint" />
          </mxGeometry>
        </mxCell>
        <mxCell id="88pjpDgZNzRrYMClc0rx-28" value="" style="endArrow=blockThin;html=1;rounded=0;fontFamily=Architects Daughter;fontSource=https://fonts.googleapis.com/css?family=Architects+Daughter;fontSize=16;startSize=14;endSize=14;sourcePerimeterSpacing=8;targetPerimeterSpacing=8;curved=1;endFill=1;" parent="1" edge="1">
          <mxGeometry width="50" height="50" relative="1" as="geometry">
            <mxPoint x="1087" y="629" as="sourcePoint" />
            <mxPoint x="959" y="629" as="targetPoint" />
          </mxGeometry>
        </mxCell>
        <mxCell id="88pjpDgZNzRrYMClc0rx-30" value="" style="endArrow=none;html=1;rounded=0;fontFamily=Architects Daughter;fontSource=https%3A%2F%2Ffonts.googleapis.com%2Fcss%3Ffamily%3DArchitects%2BDaughter;fontSize=16;startSize=14;endSize=14;sourcePerimeterSpacing=8;targetPerimeterSpacing=8;curved=1;" parent="1" edge="1">
          <mxGeometry width="50" height="50" relative="1" as="geometry">
            <mxPoint x="1087" y="629" as="sourcePoint" />
            <mxPoint x="1087" y="540" as="targetPoint" />
          </mxGeometry>
        </mxCell>
        <mxCell id="88pjpDgZNzRrYMClc0rx-31" value="" style="endArrow=blockThin;html=1;rounded=0;fontFamily=Architects Daughter;fontSource=https://fonts.googleapis.com/css?family=Architects+Daughter;fontSize=16;startSize=14;endSize=14;sourcePerimeterSpacing=8;targetPerimeterSpacing=8;curved=1;endFill=1;entryX=0.672;entryY=-0.003;entryDx=0;entryDy=0;entryPerimeter=0;" parent="1" edge="1">
          <mxGeometry width="50" height="50" relative="1" as="geometry">
            <mxPoint x="1369" y="657" as="sourcePoint" />
            <mxPoint x="958.3509999999999" y="656.6479999999999" as="targetPoint" />
          </mxGeometry>
        </mxCell>
        <mxCell id="88pjpDgZNzRrYMClc0rx-32" value="" style="endArrow=none;html=1;rounded=0;fontFamily=Architects Daughter;fontSource=https%3A%2F%2Ffonts.googleapis.com%2Fcss%3Ffamily%3DArchitects%2BDaughter;fontSize=16;startSize=14;endSize=14;sourcePerimeterSpacing=8;targetPerimeterSpacing=8;curved=1;" parent="1" edge="1">
          <mxGeometry width="50" height="50" relative="1" as="geometry">
            <mxPoint x="737" y="574" as="sourcePoint" />
            <mxPoint x="822" y="574" as="targetPoint" />
          </mxGeometry>
        </mxCell>
        <mxCell id="88pjpDgZNzRrYMClc0rx-34" value="" style="endArrow=none;html=1;rounded=0;fontFamily=Architects Daughter;fontSource=https%3A%2F%2Ffonts.googleapis.com%2Fcss%3Ffamily%3DArchitects%2BDaughter;fontSize=16;startSize=14;endSize=14;sourcePerimeterSpacing=8;targetPerimeterSpacing=8;curved=1;" parent="1" edge="1">
          <mxGeometry width="50" height="50" relative="1" as="geometry">
            <mxPoint x="737" y="594" as="sourcePoint" />
            <mxPoint x="745" y="594" as="targetPoint" />
          </mxGeometry>
        </mxCell>
        <mxCell id="88pjpDgZNzRrYMClc0rx-37" value="" style="endArrow=none;html=1;rounded=0;fontFamily=Architects Daughter;fontSource=https%3A%2F%2Ffonts.googleapis.com%2Fcss%3Ffamily%3DArchitects%2BDaughter;fontSize=16;startSize=14;endSize=14;sourcePerimeterSpacing=8;targetPerimeterSpacing=8;curved=1;" parent="1" edge="1">
          <mxGeometry width="50" height="50" relative="1" as="geometry">
            <mxPoint x="822" y="624" as="sourcePoint" />
            <mxPoint x="822" y="574" as="targetPoint" />
          </mxGeometry>
        </mxCell>
        <mxCell id="88pjpDgZNzRrYMClc0rx-39" value="" style="endArrow=none;html=1;rounded=0;fontFamily=Architects Daughter;fontSource=https%3A%2F%2Ffonts.googleapis.com%2Fcss%3Ffamily%3DArchitects%2BDaughter;fontSize=16;startSize=14;endSize=14;sourcePerimeterSpacing=8;targetPerimeterSpacing=8;curved=1;" parent="1" edge="1">
          <mxGeometry width="50" height="50" relative="1" as="geometry">
            <mxPoint x="745" y="643" as="sourcePoint" />
            <mxPoint x="745" y="594" as="targetPoint" />
          </mxGeometry>
        </mxCell>
        <mxCell id="88pjpDgZNzRrYMClc0rx-40" value="" style="endArrow=blockThin;html=1;rounded=0;fontFamily=Architects Daughter;fontSource=https://fonts.googleapis.com/css?family=Architects+Daughter;fontSize=16;startSize=14;endSize=14;sourcePerimeterSpacing=8;targetPerimeterSpacing=8;curved=1;endFill=1;entryX=0.778;entryY=1.005;entryDx=0;entryDy=0;entryPerimeter=0;" parent="1" edge="1">
          <mxGeometry width="50" height="50" relative="1" as="geometry">
            <mxPoint x="822" y="624" as="sourcePoint" />
            <mxPoint x="849.5" y="624.09" as="targetPoint" />
          </mxGeometry>
        </mxCell>
        <mxCell id="88pjpDgZNzRrYMClc0rx-41" value="" style="endArrow=blockThin;html=1;rounded=0;fontFamily=Architects Daughter;fontSource=https://fonts.googleapis.com/css?family=Architects+Daughter;fontSize=16;startSize=14;endSize=14;sourcePerimeterSpacing=8;targetPerimeterSpacing=8;curved=1;endFill=1;entryX=0.778;entryY=1.005;entryDx=0;entryDy=0;entryPerimeter=0;" parent="1" edge="1">
          <mxGeometry width="50" height="50" relative="1" as="geometry">
            <mxPoint x="745" y="643" as="sourcePoint" />
            <mxPoint x="847.5" y="643.09" as="targetPoint" />
          </mxGeometry>
        </mxCell>
        <mxCell id="88pjpDgZNzRrYMClc0rx-42" value="" style="endArrow=none;html=1;rounded=0;fontFamily=Architects Daughter;fontSource=https%3A%2F%2Ffonts.googleapis.com%2Fcss%3Ffamily%3DArchitects%2BDaughter;fontSize=16;startSize=14;endSize=14;sourcePerimeterSpacing=8;targetPerimeterSpacing=8;curved=1;" parent="1" edge="1">
          <mxGeometry width="50" height="50" relative="1" as="geometry">
            <mxPoint x="527" y="685" as="sourcePoint" />
            <mxPoint x="1115.7" y="684" as="targetPoint" />
          </mxGeometry>
        </mxCell>
        <mxCell id="88pjpDgZNzRrYMClc0rx-43" value="&lt;font face=&quot;Lucida Console&quot;&gt;Mux&lt;/font&gt;" style="shape=trapezoid;perimeter=trapezoidPerimeter;whiteSpace=wrap;html=1;fixedSize=1;fontFamily=Architects Daughter;fontSource=https%3A%2F%2Ffonts.googleapis.com%2Fcss%3Ffamily%3DArchitects%2BDaughter;direction=south;" parent="1" vertex="1">
          <mxGeometry x="1386" y="322" width="30" height="83" as="geometry" />
        </mxCell>
        <mxCell id="88pjpDgZNzRrYMClc0rx-44" value="" style="endArrow=blockThin;html=1;rounded=0;fontFamily=Architects Daughter;fontSource=https://fonts.googleapis.com/css?family=Architects+Daughter;fontSize=16;startSize=14;endSize=14;sourcePerimeterSpacing=8;targetPerimeterSpacing=8;curved=1;endFill=1;" parent="1" edge="1">
          <mxGeometry width="50" height="50" relative="1" as="geometry">
            <mxPoint x="1324" y="344" as="sourcePoint" />
            <mxPoint x="1385" y="344" as="targetPoint" />
          </mxGeometry>
        </mxCell>
        <mxCell id="88pjpDgZNzRrYMClc0rx-48" value="" style="endArrow=blockThin;html=1;rounded=0;fontFamily=Architects Daughter;fontSource=https://fonts.googleapis.com/css?family=Architects+Daughter;fontSize=16;startSize=14;endSize=14;sourcePerimeterSpacing=8;targetPerimeterSpacing=8;curved=1;endFill=1;" parent="1" edge="1">
          <mxGeometry width="50" height="50" relative="1" as="geometry">
            <mxPoint x="1324" y="386" as="sourcePoint" />
            <mxPoint x="1384" y="386" as="targetPoint" />
          </mxGeometry>
        </mxCell>
        <mxCell id="88pjpDgZNzRrYMClc0rx-49" value="" style="endArrow=none;html=1;rounded=0;fontFamily=Architects Daughter;fontSource=https%3A%2F%2Ffonts.googleapis.com%2Fcss%3Ffamily%3DArchitects%2BDaughter;fontSize=16;startSize=14;endSize=14;sourcePerimeterSpacing=8;targetPerimeterSpacing=8;curved=1;exitX=0.5;exitY=0;exitDx=0;exitDy=0;" parent="1" edge="1" source="88pjpDgZNzRrYMClc0rx-43">
          <mxGeometry width="50" height="50" relative="1" as="geometry">
            <mxPoint x="1409.002" y="363.47599999999966" as="sourcePoint" />
            <mxPoint x="1448.7" y="363" as="targetPoint" />
          </mxGeometry>
        </mxCell>
        <mxCell id="88pjpDgZNzRrYMClc0rx-50" value="" style="endArrow=none;html=1;rounded=0;fontFamily=Architects Daughter;fontSource=https%3A%2F%2Ffonts.googleapis.com%2Fcss%3Ffamily%3DArchitects%2BDaughter;fontSize=16;startSize=14;endSize=14;sourcePerimeterSpacing=8;targetPerimeterSpacing=8;curved=1;" parent="1" edge="1">
          <mxGeometry width="50" height="50" relative="1" as="geometry">
            <mxPoint x="1451" y="690" as="sourcePoint" />
            <mxPoint x="1448.7" y="363" as="targetPoint" />
          </mxGeometry>
        </mxCell>
        <mxCell id="88pjpDgZNzRrYMClc0rx-51" value="" style="endArrow=none;html=1;rounded=0;fontFamily=Architects Daughter;fontSource=https%3A%2F%2Ffonts.googleapis.com%2Fcss%3Ffamily%3DArchitects%2BDaughter;fontSize=16;startSize=14;endSize=14;sourcePerimeterSpacing=8;targetPerimeterSpacing=8;curved=1;" parent="1" edge="1">
          <mxGeometry width="50" height="50" relative="1" as="geometry">
            <mxPoint x="764" y="693" as="sourcePoint" />
            <mxPoint x="1451.7" y="690" as="targetPoint" />
          </mxGeometry>
        </mxCell>
        <mxCell id="88pjpDgZNzRrYMClc0rx-52" value="" style="endArrow=blockThin;html=1;rounded=0;fontFamily=Architects Daughter;fontSource=https://fonts.googleapis.com/css?family=Architects+Daughter;fontSize=16;startSize=14;endSize=14;sourcePerimeterSpacing=8;targetPerimeterSpacing=8;curved=1;exitX=0.5;exitY=0;exitDx=0;exitDy=0;endFill=1;" parent="1" edge="1">
          <mxGeometry width="50" height="50" relative="1" as="geometry">
            <mxPoint x="737" y="261" as="sourcePoint" />
            <mxPoint x="807" y="261" as="targetPoint" />
          </mxGeometry>
        </mxCell>
        <mxCell id="88pjpDgZNzRrYMClc0rx-54" value="" style="endArrow=none;html=1;rounded=0;fontFamily=Architects Daughter;fontSource=https%3A%2F%2Ffonts.googleapis.com%2Fcss%3Ffamily%3DArchitects%2BDaughter;fontSize=16;startSize=14;endSize=14;sourcePerimeterSpacing=8;targetPerimeterSpacing=8;curved=1;" parent="1" edge="1">
          <mxGeometry width="50" height="50" relative="1" as="geometry">
            <mxPoint x="783" y="685" as="sourcePoint" />
            <mxPoint x="780" y="183" as="targetPoint" />
          </mxGeometry>
        </mxCell>
        <mxCell id="88pjpDgZNzRrYMClc0rx-55" value="" style="endArrow=blockThin;html=1;rounded=0;fontFamily=Architects Daughter;fontSource=https://fonts.googleapis.com/css?family=Architects+Daughter;fontSize=16;startSize=14;endSize=14;sourcePerimeterSpacing=8;targetPerimeterSpacing=8;curved=1;endFill=1;" parent="1" edge="1">
          <mxGeometry width="50" height="50" relative="1" as="geometry">
            <mxPoint x="780" y="183" as="sourcePoint" />
            <mxPoint x="808" y="183" as="targetPoint" />
          </mxGeometry>
        </mxCell>
        <mxCell id="88pjpDgZNzRrYMClc0rx-56" value="" style="endArrow=blockThin;html=1;rounded=0;fontFamily=Architects Daughter;fontSource=https://fonts.googleapis.com/css?family=Architects+Daughter;fontSize=16;startSize=14;endSize=14;sourcePerimeterSpacing=8;targetPerimeterSpacing=8;curved=1;endFill=1;" parent="1" edge="1">
          <mxGeometry width="50" height="50" relative="1" as="geometry">
            <mxPoint x="781" y="318" as="sourcePoint" />
            <mxPoint x="808" y="318" as="targetPoint" />
          </mxGeometry>
        </mxCell>
        <mxCell id="88pjpDgZNzRrYMClc0rx-57" value="" style="endArrow=none;html=1;rounded=0;fontFamily=Architects Daughter;fontSource=https%3A%2F%2Ffonts.googleapis.com%2Fcss%3Ffamily%3DArchitects%2BDaughter;fontSize=16;startSize=14;endSize=14;sourcePerimeterSpacing=8;targetPerimeterSpacing=8;curved=1;" parent="1" edge="1">
          <mxGeometry width="50" height="50" relative="1" as="geometry">
            <mxPoint x="764" y="693" as="sourcePoint" />
            <mxPoint x="761" y="159" as="targetPoint" />
          </mxGeometry>
        </mxCell>
        <mxCell id="88pjpDgZNzRrYMClc0rx-59" value="" style="endArrow=blockThin;html=1;rounded=0;fontFamily=Architects Daughter;fontSource=https://fonts.googleapis.com/css?family=Architects+Daughter;fontSize=16;startSize=14;endSize=14;sourcePerimeterSpacing=8;targetPerimeterSpacing=8;curved=1;endFill=1;" parent="1" edge="1">
          <mxGeometry width="50" height="50" relative="1" as="geometry">
            <mxPoint x="761" y="289.9" as="sourcePoint" />
            <mxPoint x="808" y="289.36" as="targetPoint" />
          </mxGeometry>
        </mxCell>
        <mxCell id="88pjpDgZNzRrYMClc0rx-60" value="" style="endArrow=blockThin;html=1;rounded=0;fontFamily=Architects Daughter;fontSource=https://fonts.googleapis.com/css?family=Architects+Daughter;fontSize=16;startSize=14;endSize=14;sourcePerimeterSpacing=8;targetPerimeterSpacing=8;curved=1;endFill=1;" parent="1" edge="1">
          <mxGeometry width="50" height="50" relative="1" as="geometry">
            <mxPoint x="761" y="158.77999999999997" as="sourcePoint" />
            <mxPoint x="808" y="158.24" as="targetPoint" />
          </mxGeometry>
        </mxCell>
        <mxCell id="TcMdvym7ITpzhDdnbntT-2" value="" style="rounded=1;whiteSpace=wrap;html=1;fontFamily=Architects Daughter;fontSource=https%3A%2F%2Ffonts.googleapis.com%2Fcss%3Ffamily%3DArchitects%2BDaughter;direction=south;" vertex="1" parent="1">
          <mxGeometry x="1045" y="-75" width="31" height="699" as="geometry" />
        </mxCell>
        <mxCell id="TcMdvym7ITpzhDdnbntT-3" value="" style="rounded=1;whiteSpace=wrap;html=1;fontFamily=Architects Daughter;fontSource=https%3A%2F%2Ffonts.googleapis.com%2Fcss%3Ffamily%3DArchitects%2BDaughter;direction=south;" vertex="1" parent="1">
          <mxGeometry x="1292" y="-74" width="31" height="699" as="geometry" />
        </mxCell>
        <mxCell id="TcMdvym7ITpzhDdnbntT-4" value="" style="endArrow=blockThin;html=1;rounded=0;fontFamily=Architects Daughter;fontSource=https://fonts.googleapis.com/css?family=Architects+Daughter;fontSize=16;startSize=14;endSize=14;sourcePerimeterSpacing=8;targetPerimeterSpacing=8;curved=1;exitX=0.5;exitY=0;exitDx=0;exitDy=0;endFill=1;" edge="1" parent="1">
          <mxGeometry width="50" height="50" relative="1" as="geometry">
            <mxPoint x="737" y="-47" as="sourcePoint" />
            <mxPoint x="1040" y="-47" as="targetPoint" />
          </mxGeometry>
        </mxCell>
        <mxCell id="TcMdvym7ITpzhDdnbntT-6" value="" style="endArrow=blockThin;html=1;rounded=0;fontFamily=Architects Daughter;fontSource=https://fonts.googleapis.com/css?family=Architects+Daughter;fontSize=16;startSize=14;endSize=14;sourcePerimeterSpacing=8;targetPerimeterSpacing=8;curved=1;exitX=0.5;exitY=0;exitDx=0;exitDy=0;endFill=1;" edge="1" parent="1">
          <mxGeometry width="50" height="50" relative="1" as="geometry">
            <mxPoint x="1076" y="-47" as="sourcePoint" />
            <mxPoint x="1289" y="-47" as="targetPoint" />
          </mxGeometry>
        </mxCell>
        <mxCell id="TcMdvym7ITpzhDdnbntT-9" value="" style="endArrow=none;html=1;rounded=0;fontFamily=Architects Daughter;fontSource=https%3A%2F%2Ffonts.googleapis.com%2Fcss%3Ffamily%3DArchitects%2BDaughter;fontSize=16;startSize=14;endSize=14;sourcePerimeterSpacing=8;targetPerimeterSpacing=8;curved=1;" edge="1" parent="1">
          <mxGeometry width="50" height="50" relative="1" as="geometry">
            <mxPoint x="1100" y="643" as="sourcePoint" />
            <mxPoint x="1099" y="-47" as="targetPoint" />
          </mxGeometry>
        </mxCell>
        <mxCell id="TcMdvym7ITpzhDdnbntT-10" value="" style="endArrow=blockThin;html=1;rounded=0;fontFamily=Architects Daughter;fontSource=https://fonts.googleapis.com/css?family=Architects+Daughter;fontSize=16;startSize=14;endSize=14;sourcePerimeterSpacing=8;targetPerimeterSpacing=8;curved=1;endFill=1;" edge="1" parent="1">
          <mxGeometry width="50" height="50" relative="1" as="geometry">
            <mxPoint x="1100" y="643" as="sourcePoint" />
            <mxPoint x="963" y="643" as="targetPoint" />
          </mxGeometry>
        </mxCell>
        <mxCell id="TcMdvym7ITpzhDdnbntT-13" value="" style="endArrow=none;html=1;rounded=0;fontFamily=Architects Daughter;fontSource=https%3A%2F%2Ffonts.googleapis.com%2Fcss%3Ffamily%3DArchitects%2BDaughter;fontSize=16;startSize=14;endSize=14;sourcePerimeterSpacing=8;targetPerimeterSpacing=8;curved=1;exitX=0.866;exitY=-0.042;exitDx=0;exitDy=0;exitPerimeter=0;" edge="1" parent="1">
          <mxGeometry width="50" height="50" relative="1" as="geometry">
            <mxPoint x="1323.002" y="-46.52400000000034" as="sourcePoint" />
            <mxPoint x="1352" y="-47" as="targetPoint" />
          </mxGeometry>
        </mxCell>
        <mxCell id="TcMdvym7ITpzhDdnbntT-15" value="" style="endArrow=none;html=1;rounded=0;fontFamily=Architects Daughter;fontSource=https%3A%2F%2Ffonts.googleapis.com%2Fcss%3Ffamily%3DArchitects%2BDaughter;fontSize=16;startSize=14;endSize=14;sourcePerimeterSpacing=8;targetPerimeterSpacing=8;curved=1;" edge="1" parent="1">
          <mxGeometry width="50" height="50" relative="1" as="geometry">
            <mxPoint x="1356" y="670" as="sourcePoint" />
            <mxPoint x="1352" y="-47" as="targetPoint" />
          </mxGeometry>
        </mxCell>
        <mxCell id="TcMdvym7ITpzhDdnbntT-16" value="" style="endArrow=blockThin;html=1;rounded=0;fontFamily=Architects Daughter;fontSource=https://fonts.googleapis.com/css?family=Architects+Daughter;fontSize=16;startSize=14;endSize=14;sourcePerimeterSpacing=8;targetPerimeterSpacing=8;curved=1;endFill=1;entryX=0.672;entryY=-0.003;entryDx=0;entryDy=0;entryPerimeter=0;" edge="1" parent="1">
          <mxGeometry width="50" height="50" relative="1" as="geometry">
            <mxPoint x="1356" y="670" as="sourcePoint" />
            <mxPoint x="945.0009999999999" y="669.9979999999999" as="targetPoint" />
          </mxGeometry>
        </mxCell>
        <mxCell id="TcMdvym7ITpzhDdnbntT-17" value="" style="endArrow=none;html=1;rounded=0;fontFamily=Architects Daughter;fontSource=https%3A%2F%2Ffonts.googleapis.com%2Fcss%3Ffamily%3DArchitects%2BDaughter;fontSize=16;startSize=14;endSize=14;sourcePerimeterSpacing=8;targetPerimeterSpacing=8;curved=1;" edge="1" parent="1">
          <mxGeometry width="50" height="50" relative="1" as="geometry">
            <mxPoint x="527" y="685" as="sourcePoint" />
            <mxPoint x="527" y="451" as="targetPoint" />
          </mxGeometry>
        </mxCell>
        <mxCell id="TcMdvym7ITpzhDdnbntT-18" value="" style="endArrow=blockThin;html=1;rounded=0;fontFamily=Architects Daughter;fontSource=https://fonts.googleapis.com/css?family=Architects+Daughter;fontSize=16;startSize=14;endSize=14;sourcePerimeterSpacing=8;targetPerimeterSpacing=8;curved=1;exitX=0.5;exitY=0;exitDx=0;exitDy=0;endFill=1;" edge="1" parent="1">
          <mxGeometry width="50" height="50" relative="1" as="geometry">
            <mxPoint x="527" y="451.5" as="sourcePoint" />
            <mxPoint x="562" y="451.5" as="targetPoint" />
          </mxGeometry>
        </mxCell>
        <mxCell id="TcMdvym7ITpzhDdnbntT-19" value="" style="endArrow=none;html=1;rounded=0;fontFamily=Architects Daughter;fontSource=https%3A%2F%2Ffonts.googleapis.com%2Fcss%3Ffamily%3DArchitects%2BDaughter;fontSize=16;startSize=14;endSize=14;sourcePerimeterSpacing=8;targetPerimeterSpacing=8;curved=1;" edge="1" parent="1">
          <mxGeometry width="50" height="50" relative="1" as="geometry">
            <mxPoint x="1036" y="704" as="sourcePoint" />
            <mxPoint x="1036" y="657" as="targetPoint" />
          </mxGeometry>
        </mxCell>
        <mxCell id="TcMdvym7ITpzhDdnbntT-21" value="" style="endArrow=none;html=1;rounded=0;fontFamily=Architects Daughter;fontSource=https%3A%2F%2Ffonts.googleapis.com%2Fcss%3Ffamily%3DArchitects%2BDaughter;fontSize=16;startSize=14;endSize=14;sourcePerimeterSpacing=8;targetPerimeterSpacing=8;curved=1;" edge="1" parent="1">
          <mxGeometry width="50" height="50" relative="1" as="geometry">
            <mxPoint x="507" y="705" as="sourcePoint" />
            <mxPoint x="1035.7" y="704" as="targetPoint" />
          </mxGeometry>
        </mxCell>
        <mxCell id="TcMdvym7ITpzhDdnbntT-26" value="" style="endArrow=none;html=1;rounded=0;fontFamily=Architects Daughter;fontSource=https%3A%2F%2Ffonts.googleapis.com%2Fcss%3Ffamily%3DArchitects%2BDaughter;fontSize=16;startSize=14;endSize=14;sourcePerimeterSpacing=8;targetPerimeterSpacing=8;curved=1;" edge="1" parent="1">
          <mxGeometry width="50" height="50" relative="1" as="geometry">
            <mxPoint x="507" y="705" as="sourcePoint" />
            <mxPoint x="507" y="416" as="targetPoint" />
          </mxGeometry>
        </mxCell>
        <mxCell id="TcMdvym7ITpzhDdnbntT-28" value="" style="endArrow=blockThin;html=1;rounded=0;fontFamily=Architects Daughter;fontSource=https://fonts.googleapis.com/css?family=Architects+Daughter;fontSize=16;startSize=14;endSize=14;sourcePerimeterSpacing=8;targetPerimeterSpacing=8;curved=1;endFill=1;" edge="1" parent="1">
          <mxGeometry width="50" height="50" relative="1" as="geometry">
            <mxPoint x="507" y="416" as="sourcePoint" />
            <mxPoint x="562" y="416" as="targetPoint" />
          </mxGeometry>
        </mxCell>
        <mxCell id="TcMdvym7ITpzhDdnbntT-31" value="&lt;font face=&quot;Lucida Console&quot;&gt;&lt;span style=&quot;font-size: 10px;&quot;&gt;WR&lt;/span&gt;&lt;/font&gt;" style="text;html=1;align=center;verticalAlign=middle;whiteSpace=wrap;rounded=0;fontSize=20;fontFamily=Architects Daughter;fontSource=https%3A%2F%2Ffonts.googleapis.com%2Fcss%3Ffamily%3DArchitects%2BDaughter;" vertex="1" parent="1">
          <mxGeometry x="555" y="403.63" width="41" height="19.5" as="geometry" />
        </mxCell>
        <mxCell id="TcMdvym7ITpzhDdnbntT-32" value="&lt;font face=&quot;Lucida Console&quot;&gt;&lt;span style=&quot;font-size: 10px;&quot;&gt;WD&lt;/span&gt;&lt;/font&gt;" style="text;html=1;align=center;verticalAlign=middle;whiteSpace=wrap;rounded=0;fontSize=20;fontFamily=Architects Daughter;fontSource=https%3A%2F%2Ffonts.googleapis.com%2Fcss%3Ffamily%3DArchitects%2BDaughter;" vertex="1" parent="1">
          <mxGeometry x="555" y="438.5" width="41" height="19.5" as="geometry" />
        </mxCell>
        <mxCell id="TcMdvym7ITpzhDdnbntT-34" value="&lt;font style=&quot;font-size: 14px;&quot; face=&quot;Lucida Console&quot;&gt;CSR&lt;/font&gt;" style="rounded=1;whiteSpace=wrap;html=1;fontFamily=Architects Daughter;fontSource=https%3A%2F%2Ffonts.googleapis.com%2Fcss%3Ffamily%3DArchitects%2BDaughter;" vertex="1" parent="1">
          <mxGeometry x="574" y="230.88" width="80" height="45" as="geometry" />
        </mxCell>
        <mxCell id="TcMdvym7ITpzhDdnbntT-35" value="" style="endArrow=blockThin;html=1;rounded=0;fontFamily=Architects Daughter;fontSource=https://fonts.googleapis.com/css?family=Architects+Daughter;fontSize=16;startSize=14;endSize=14;sourcePerimeterSpacing=8;targetPerimeterSpacing=8;curved=1;entryX=-0.004;entryY=0.15;entryDx=0;entryDy=0;endFill=1;entryPerimeter=0;" edge="1" parent="1">
          <mxGeometry width="50" height="50" relative="1" as="geometry">
            <mxPoint x="447" y="253" as="sourcePoint" />
            <mxPoint x="571.5840000000001" y="253.21750000000003" as="targetPoint" />
          </mxGeometry>
        </mxCell>
        <mxCell id="TcMdvym7ITpzhDdnbntT-36" value="" style="endArrow=blockThin;html=1;rounded=0;fontFamily=Architects Daughter;fontSource=https://fonts.googleapis.com/css?family=Architects+Daughter;fontSize=16;startSize=14;endSize=14;sourcePerimeterSpacing=8;targetPerimeterSpacing=8;curved=1;exitX=0.5;exitY=0;exitDx=0;exitDy=0;endFill=1;" edge="1" parent="1">
          <mxGeometry width="50" height="50" relative="1" as="geometry">
            <mxPoint x="654" y="253.3" as="sourcePoint" />
            <mxPoint x="703" y="253" as="targetPoint" />
          </mxGeometry>
        </mxCell>
        <mxCell id="TcMdvym7ITpzhDdnbntT-37" value="&lt;font style=&quot;font-size: 14px;&quot; face=&quot;Lucida Console&quot;&gt;PC control&lt;/font&gt;" style="ellipse;whiteSpace=wrap;html=1;fontFamily=Architects Daughter;fontSource=https%3A%2F%2Ffonts.googleapis.com%2Fcss%3Ffamily%3DArchitects%2BDaughter;" vertex="1" parent="1">
          <mxGeometry x="763" y="-23.75" width="120" height="50.5" as="geometry" />
        </mxCell>
        <mxCell id="TcMdvym7ITpzhDdnbntT-39" value="" style="endArrow=none;html=1;rounded=0;fontFamily=Architects Daughter;fontSource=https%3A%2F%2Ffonts.googleapis.com%2Fcss%3Ffamily%3DArchitects%2BDaughter;fontSize=16;startSize=14;endSize=14;sourcePerimeterSpacing=8;targetPerimeterSpacing=8;curved=1;" edge="1" parent="1">
          <mxGeometry width="50" height="50" relative="1" as="geometry">
            <mxPoint x="1016" y="351" as="sourcePoint" />
            <mxPoint x="1015" y="1" as="targetPoint" />
          </mxGeometry>
        </mxCell>
        <mxCell id="TcMdvym7ITpzhDdnbntT-40" value="" style="endArrow=blockThin;html=1;rounded=0;fontFamily=Architects Daughter;fontSource=https://fonts.googleapis.com/css?family=Architects+Daughter;fontSize=16;startSize=14;endSize=14;sourcePerimeterSpacing=8;targetPerimeterSpacing=8;curved=1;endFill=1;" edge="1" parent="1">
          <mxGeometry width="50" height="50" relative="1" as="geometry">
            <mxPoint x="1015" y="1" as="sourcePoint" />
            <mxPoint x="883" y="1.3599999999999994" as="targetPoint" />
          </mxGeometry>
        </mxCell>
        <mxCell id="TcMdvym7ITpzhDdnbntT-44" value="" style="endArrow=none;html=1;rounded=0;fontFamily=Architects Daughter;fontSource=https%3A%2F%2Ffonts.googleapis.com%2Fcss%3Ffamily%3DArchitects%2BDaughter;fontSize=16;startSize=14;endSize=14;sourcePerimeterSpacing=8;targetPerimeterSpacing=8;curved=1;" edge="1" parent="1">
          <mxGeometry width="50" height="50" relative="1" as="geometry">
            <mxPoint x="822.5" y="-26" as="sourcePoint" />
            <mxPoint x="822" y="-125" as="targetPoint" />
          </mxGeometry>
        </mxCell>
        <mxCell id="TcMdvym7ITpzhDdnbntT-45" value="" style="endArrow=none;html=1;rounded=0;fontFamily=Architects Daughter;fontSource=https%3A%2F%2Ffonts.googleapis.com%2Fcss%3Ffamily%3DArchitects%2BDaughter;fontSize=16;startSize=14;endSize=14;sourcePerimeterSpacing=8;targetPerimeterSpacing=8;curved=1;" edge="1" parent="1">
          <mxGeometry width="50" height="50" relative="1" as="geometry">
            <mxPoint x="152" y="-125" as="sourcePoint" />
            <mxPoint x="822" y="-125" as="targetPoint" />
          </mxGeometry>
        </mxCell>
        <mxCell id="TcMdvym7ITpzhDdnbntT-46" value="" style="endArrow=blockThin;html=1;rounded=0;fontFamily=Architects Daughter;fontSource=https://fonts.googleapis.com/css?family=Architects+Daughter;fontSize=16;startSize=14;endSize=14;sourcePerimeterSpacing=8;targetPerimeterSpacing=8;curved=1;endFill=1;" edge="1" parent="1">
          <mxGeometry width="50" height="50" relative="1" as="geometry">
            <mxPoint x="152" y="-125" as="sourcePoint" />
            <mxPoint x="152.13" y="299.5" as="targetPoint" />
          </mxGeometry>
        </mxCell>
        <mxCell id="TcMdvym7ITpzhDdnbntT-47" value="" style="endArrow=blockThin;html=1;rounded=0;fontFamily=Architects Daughter;fontSource=https://fonts.googleapis.com/css?family=Architects+Daughter;fontSize=16;startSize=14;endSize=14;sourcePerimeterSpacing=8;targetPerimeterSpacing=8;curved=1;entryX=0.112;entryY=1.021;entryDx=0;entryDy=0;endFill=1;entryPerimeter=0;" edge="1" parent="1">
          <mxGeometry width="50" height="50" relative="1" as="geometry">
            <mxPoint x="444" y="38" as="sourcePoint" />
            <mxPoint x="470" y="38.000000000000014" as="targetPoint" />
          </mxGeometry>
        </mxCell>
        <mxCell id="TcMdvym7ITpzhDdnbntT-48" value="" style="endArrow=blockThin;html=1;rounded=0;fontFamily=Architects Daughter;fontSource=https://fonts.googleapis.com/css?family=Architects+Daughter;fontSize=16;startSize=14;endSize=14;sourcePerimeterSpacing=8;targetPerimeterSpacing=8;curved=1;endFill=1;" edge="1" parent="1">
          <mxGeometry width="50" height="50" relative="1" as="geometry">
            <mxPoint x="444" y="102" as="sourcePoint" />
            <mxPoint x="488" y="101.82999999999998" as="targetPoint" />
          </mxGeometry>
        </mxCell>
        <mxCell id="TcMdvym7ITpzhDdnbntT-49" value="" style="endArrow=none;html=1;rounded=0;fontFamily=Architects Daughter;fontSource=https%3A%2F%2Ffonts.googleapis.com%2Fcss%3Ffamily%3DArchitects%2BDaughter;fontSize=16;startSize=14;endSize=14;sourcePerimeterSpacing=8;targetPerimeterSpacing=8;curved=1;" edge="1" parent="1">
          <mxGeometry width="50" height="50" relative="1" as="geometry">
            <mxPoint x="43" y="-15" as="sourcePoint" />
            <mxPoint x="479" y="-17" as="targetPoint" />
          </mxGeometry>
        </mxCell>
        <mxCell id="TcMdvym7ITpzhDdnbntT-50" value="" style="endArrow=none;html=1;rounded=0;fontFamily=Architects Daughter;fontSource=https%3A%2F%2Ffonts.googleapis.com%2Fcss%3Ffamily%3DArchitects%2BDaughter;fontSize=16;startSize=14;endSize=14;sourcePerimeterSpacing=8;targetPerimeterSpacing=8;curved=1;" edge="1" parent="1">
          <mxGeometry width="50" height="50" relative="1" as="geometry">
            <mxPoint x="43" y="463" as="sourcePoint" />
            <mxPoint x="44" y="-15" as="targetPoint" />
          </mxGeometry>
        </mxCell>
        <mxCell id="TcMdvym7ITpzhDdnbntT-51" value="" style="endArrow=blockThin;html=1;rounded=0;fontFamily=Architects Daughter;fontSource=https%3A%2F%2Ffonts.googleapis.com%2Fcss%3Ffamily%3DArchitects%2BDaughter;fontSize=16;startSize=14;endSize=14;sourcePerimeterSpacing=8;targetPerimeterSpacing=8;curved=1;endFill=1;" edge="1" parent="1">
          <mxGeometry width="50" height="50" relative="1" as="geometry">
            <mxPoint x="43" y="463" as="sourcePoint" />
            <mxPoint x="383" y="462" as="targetPoint" />
          </mxGeometry>
        </mxCell>
        <mxCell id="TcMdvym7ITpzhDdnbntT-52" value="" style="endArrow=blockThin;html=1;rounded=0;fontFamily=Architects Daughter;fontSource=https://fonts.googleapis.com/css?family=Architects+Daughter;fontSize=16;startSize=14;endSize=14;sourcePerimeterSpacing=8;targetPerimeterSpacing=8;curved=1;endFill=1;" edge="1" parent="1">
          <mxGeometry width="50" height="50" relative="1" as="geometry">
            <mxPoint x="783" y="474" as="sourcePoint" />
            <mxPoint x="946.5" y="473.46" as="targetPoint" />
          </mxGeometry>
        </mxCell>
        <mxCell id="TcMdvym7ITpzhDdnbntT-53" value="" style="endArrow=none;html=1;rounded=0;fontFamily=Architects Daughter;fontSource=https%3A%2F%2Ffonts.googleapis.com%2Fcss%3Ffamily%3DArchitects%2BDaughter;fontSize=16;startSize=14;endSize=14;sourcePerimeterSpacing=8;targetPerimeterSpacing=8;curved=1;exitX=0.5;exitY=0;exitDx=0;exitDy=0;" edge="1" parent="1">
          <mxGeometry width="50" height="50" relative="1" as="geometry">
            <mxPoint x="838.0000000000002" y="158.9500000000001" as="sourcePoint" />
            <mxPoint x="902" y="158.07" as="targetPoint" />
          </mxGeometry>
        </mxCell>
        <mxCell id="TcMdvym7ITpzhDdnbntT-54" value="" style="endArrow=blockThin;html=1;rounded=0;fontFamily=Architects Daughter;fontSource=https://fonts.googleapis.com/css?family=Architects+Daughter;fontSize=16;startSize=14;endSize=14;sourcePerimeterSpacing=8;targetPerimeterSpacing=8;curved=1;exitX=0.5;exitY=0;exitDx=0;exitDy=0;endFill=1;" edge="1" parent="1">
          <mxGeometry width="50" height="50" relative="1" as="geometry">
            <mxPoint x="558" y="102.15" as="sourcePoint" />
            <mxPoint x="648" y="101" as="targetPoint" />
          </mxGeometry>
        </mxCell>
      </root>
    </mxGraphModel>
  </diagram>
</mxfile>
